<?xml version="1.0" encoding="UTF-8"?>
<svg width="354px" height="82px" viewBox="0 0 354 82" version="1.1" xmlns="http://www.w3.org/2000/svg" xmlns:xlink="http://www.w3.org/1999/xlink">
    <!-- Generator: Sketch 47 (45396) - http://www.bohemiancoding.com/sketch -->
    <title>logo@2x</title>
    <desc>Created with Sketch.</desc>
    <defs></defs>
    <g id="Page-1" stroke="none" stroke-width="1" fill="none" fill-rule="evenodd">
        <g id="logo@2x" fill-rule="nonzero" fill="#FFFFFF">
            <path d="M0,0 L83.67,0 C101.45,19.24 119.17,38.53 136.94,57.79 C153.33,38.54 169.67,19.25 186.07,0 L279.65,0 C298.81,15.9 317.92,31.86 337.08,47.76 C337.1,31.84 337.08,15.92 337.09,0 L354,0 L354,82 L354,82 C326.58,59.88 299.17,37.75 271.74,15.64 C245.57,15.64 219.4,15.62 193.23,15.65 C174.64,37.55 156.03,59.44 137.43,81.32 C117.19,59.47 97.08,37.5 76.85,15.64 C51.23,15.63 25.62,15.64 0,15.64 L0,0 Z" id="Shape"></path>
            <path d="M0,32 C21.85,32.02 43.71,31.96 65.56,32.03 C71.02,37.37 76.52,42.66 81.99,48 C54.66,48.01 27.33,48 0,48 L0,32 Z" id="Shape"></path>
            <path d="M188.01,47.99 C192.3,42.66 196.56,37.32 200.87,32 C224.58,32 248.29,32 272,32 C272,37.33 272,42.67 272,48 C244,48 216.01,48.01 188.01,47.99 Z" id="Shape"></path>
            <path d="M0,62 C32.51,62.04 65.02,61.93 97.53,62.05 C102.29,67.42 107.18,72.66 111.98,77.99 C74.66,78.01 37.33,77.99 0,78 L0,62 Z" id="Shape"></path>
            <path d="M173.39,62.02 C206.26,61.98 239.13,62.01 272,62.01 C272,67.34 272,72.67 272,78 C234.66,78.01 197.32,77.99 159.98,78 C164.47,72.7 168.93,67.36 173.39,62.02 Z" id="Shape"></path>
        </g>
    </g>
</svg>