<?xml version="1.0" encoding="UTF-8"?>
<svg width="186px" height="66px" viewBox="0 0 186 66" version="1.1" xmlns="http://www.w3.org/2000/svg" xmlns:xlink="http://www.w3.org/1999/xlink">
    <!-- Generator: Sketch 47 (45396) - http://www.bohemiancoding.com/sketch -->
    <title>Capture</title>
    <desc>Created with Sketch.</desc>
    <defs></defs>
    <g id="Page-1" stroke="none" stroke-width="1" fill="none" fill-rule="evenodd">
        <g id="Capture" fill-rule="nonzero" fill="#FFFFFF">
            <g id="#ffffffff">
                <path d="M140.7,0.48 C144.47,-0.38 148.7,2.99 147.93,7.01 C148.23,11.64 141.96,14.39 138.44,11.64 C134.18,8.95 135.51,1.22 140.7,0.48 Z" id="Shape"></path>
                <path d="M50.51,5.07 C51.47,5.05 52.43,5.03 53.39,5.02 C53.42,9.04 53.44,13.07 53.36,17.09 C55.61,17.11 57.87,17.1 60.13,17.15 C60.15,18.43 60.16,19.72 60.17,21 C57.92,20.94 55.68,21.11 53.43,21 C53.39,27.32 53.43,33.64 53.39,39.96 C53.46,42.11 53.02,44.77 55.16,46.11 C57.59,46.3 58.47,43.44 59.87,41.94 C60.71,42.48 61.56,43.03 62.4,43.58 C60.37,48.03 56.39,52.65 50.99,52.03 C47.16,52.5 42.93,50.01 42.5,45.96 C42.29,37.66 42.5,29.34 42.41,21.03 C41.43,21.01 39.48,20.95 38.5,20.93 C38.66,19.54 38.7,17.98 40.06,17.18 C44.15,13.72 47.54,9.52 50.51,5.07 Z" id="Shape"></path>
                <path d="M73.51,16.61 C78.76,15.35 84.84,16.31 88.8,20.2 C97.82,28.16 96.34,45.01 85.48,50.64 C79.34,53.48 71.14,52.77 66.33,47.71 C57.05,38.8 60.31,19.8 73.51,16.61 L73.51,16.61 Z M74.5,21.57 C72.51,25.39 72.9,29.9 72.72,34.07 C72.9,38.48 72.41,43.3 74.68,47.28 C76.12,49.54 78.96,49.22 80.99,48.01 C83.36,42.32 83.21,36.01 83,29.97 C82.64,26.99 82.62,23.78 81.04,21.12 C79.58,18.69 75.69,19.09 74.5,21.57 Z" id="Shape"></path>
                <path d="M109.68,20.45 C113.42,15.09 121.55,14.84 126.48,18.62 C130.44,21.43 131.96,26.46 132.2,31.1 C132.77,37.33 131.39,44.22 126.68,48.67 C122.34,53.31 114.25,53.31 109.81,48.78 C110.03,52.89 109.35,57.17 110.58,61.17 C111.37,63.31 113.95,63.28 115.78,63.83 C115.71,64.36 115.58,65.43 115.51,65.96 C108.71,65.93 101.91,65.93 95.11,65.95 C95.08,65.37 95.03,64.22 95,63.64 C96.11,63.22 97.2,62.74 98.26,62.21 C99.09,59.92 99.04,57.44 99.09,55.03 C99.04,45.68 99.09,36.33 99.07,26.98 C98.92,24.96 99.1,22.75 98.17,20.9 C97.11,20.33 96.03,19.84 94.91,19.41 C94.95,18.84 95.03,17.71 95.07,17.15 C100.01,17.08 104.94,17.09 109.88,17.13 C109.83,17.96 109.73,19.62 109.68,20.45 L109.68,20.45 Z M109.84,27.91 C109.86,32.64 109.8,37.37 109.86,42.09 C109.64,44.4 111.94,45.62 113.24,47.12 C114.44,47.07 115.65,47.08 116.85,47.15 C121.63,42.8 120.39,35.69 120.38,29.9 C120.1,26.6 119.6,21.4 115.28,21.26 C112.28,21.86 109.58,24.73 109.84,27.91 Z" id="Shape"></path>
                <path d="M161.5,16.73 C167.03,15.49 173.13,16.13 178.04,19.05 C180.9,21.09 181.51,24.85 181.63,28.13 C181.78,34.36 181.52,40.6 181.78,46.84 C182.67,46.39 183.57,45.95 184.46,45.51 C184.8,46.12 185.48,47.33 185.82,47.94 C185.34,48.41 184.38,49.35 183.9,49.83 C180.07,52.97 172.75,53.46 170.63,48.1 C166.6,51.58 160.73,53.27 155.65,51.26 C149.88,48.87 150.09,40.09 154.85,36.76 C159.56,33.32 165.37,31.93 170.81,30.04 C170.59,27.13 171.16,23.91 169.65,21.27 C167.31,18.73 163.54,19.42 160.85,20.94 C162.04,23.03 163.82,25.22 163.08,27.8 C162.1,31.17 157.58,31.78 154.9,30.18 C152.05,28.44 152.17,24.33 153.68,21.74 C155.2,18.82 158.57,17.68 161.5,16.73 L161.5,16.73 Z M163.61,38.83 C162.13,41.13 162.64,44.67 165.18,46 C167.53,46.63 169.22,44.49 170.8,43.14 C170.66,39.94 170.71,36.74 170.8,33.54 C168.01,34.65 165.08,36.05 163.61,38.83 Z" id="Shape"></path>
                <path d="M0.77,17.11 C5.63,17.11 10.49,17.1 15.36,17.12 C15.51,25.72 15.33,34.32 15.43,42.92 C15.49,44.09 15.73,45.71 17.08,46.06 C19.74,47.39 22.23,45.22 24.25,43.73 C24.11,36.79 24.33,29.85 24.16,22.91 C24.72,19.2 18.35,21.01 19.6,17.13 C24.77,17.1 29.94,17.08 35.1,17.15 C35.27,26.39 34.96,35.64 35.24,44.87 C35.39,46.79 37.79,46.81 39.14,47.51 C39.14,48.07 39.15,49.17 39.16,49.72 C34.1,50.04 29.11,50.95 24.21,52.2 C24.24,51.19 24.28,49.18 24.31,48.18 C21.36,50.5 17.88,52.53 13.97,52.04 C9.36,52.39 4.61,48.89 4.38,44.11 C3.84,36.51 4.58,28.87 4.03,21.27 C2.95,20.57 1.82,19.94 0.65,19.38 C0.68,18.81 0.74,17.67 0.77,17.11 Z" id="Shape"></path>
                <path d="M132.58,17.13 C137.6,17.09 142.61,17.1 147.63,17.12 C147.75,26.79 147.58,36.45 147.7,46.11 C147.41,47.92 149.81,48 150.88,48.78 C150.86,49.33 150.84,50.43 150.83,50.99 C144.7,50.99 138.58,51.06 132.46,50.94 C132.05,47.82 136.92,48.14 136.29,44.99 C136.49,37.06 136.59,29.1 136.16,21.17 C134.48,20.21 131.94,19.66 132.58,17.13 Z" id="Shape"></path>
            </g>
        </g>
    </g>
</svg>