<?xml version="1.0" encoding="UTF-8" ?>
<!DOCTYPE svg PUBLIC "-//W3C//DTD SVG 1.1//EN" "http://www.w3.org/Graphics/SVG/1.1/DTD/svg11.dtd">
<svg width="704pt" height="143pt" viewBox="0 0 704 143" version="1.1" xmlns="http://www.w3.org/2000/svg">
<g id="#ffffffff">
<path fill="#ffffff" opacity="1.00" d=" M 388.80 0.00 L 394.99 0.00 C 415.45 0.86 435.15 11.15 447.60 27.40 C 441.06 34.01 434.45 40.54 427.89 47.13 C 420.89 35.65 408.55 27.53 395.10 26.25 C 383.84 24.97 372.36 28.48 363.41 35.35 C 357.49 29.39 351.53 23.47 345.60 17.51 C 357.54 7.07 372.95 0.80 388.80 0.00 Z" />
<path fill="#ffffff" opacity="1.00" d=" M 0.27 142.49 C 19.29 95.96 38.12 49.36 57.01 2.78 C 66.47 2.75 75.93 2.81 85.38 2.75 C 104.40 49.29 123.15 95.95 142.20 142.49 C 131.73 142.49 121.26 142.48 110.79 142.49 C 106.74 132.43 102.65 122.38 98.60 112.33 C 80.35 112.33 62.11 112.32 43.87 112.33 C 39.83 122.38 35.72 132.41 31.70 142.47 C 21.22 142.50 10.74 142.48 0.27 142.49 M 54.98 84.76 C 65.83 84.83 76.68 84.73 87.53 84.81 C 81.99 71.51 76.83 58.04 71.25 44.76 C 65.92 58.13 60.47 71.45 54.98 84.76 Z" />
<path fill="#ffffff" opacity="1.00" d=" M 157.19 4.48 C 166.06 4.45 174.92 4.45 183.79 4.48 C 183.69 50.48 183.69 96.48 183.79 142.47 C 174.93 142.50 166.06 142.49 157.19 142.47 C 157.29 96.48 157.30 50.48 157.19 4.48 Z" />
<path fill="#ffffff" opacity="1.00" d=" M 217.48 4.16 C 247.05 4.21 276.63 4.16 306.20 4.18 C 306.19 13.25 306.18 22.32 306.20 31.39 C 286.29 31.39 266.37 31.42 246.45 31.38 C 246.49 41.30 246.48 51.23 246.46 61.16 C 265.40 61.16 284.33 61.15 303.26 61.16 C 303.25 70.24 303.23 79.33 303.27 88.41 C 284.32 88.43 265.37 88.39 246.42 88.43 C 246.56 106.45 246.40 124.47 246.51 142.49 C 236.82 142.48 227.14 142.49 217.45 142.48 C 217.53 96.38 217.48 50.27 217.48 4.16 Z" />
<path fill="#ffffff" opacity="1.00" d=" M 479.18 34.61 C 482.79 26.67 486.21 18.66 489.77 10.70 C 491.17 10.71 492.58 10.72 493.99 10.74 C 497.53 18.69 500.93 26.70 504.57 34.61 C 503.50 34.62 501.35 34.64 500.28 34.65 C 499.44 32.87 498.64 31.09 497.84 29.30 C 493.84 29.28 489.85 29.29 485.86 29.29 C 485.08 31.07 484.30 32.85 483.53 34.64 C 482.07 34.63 480.62 34.62 479.18 34.61 M 491.88 15.65 C 490.40 18.96 488.98 22.29 487.43 25.56 C 490.37 25.53 493.32 25.52 496.27 25.54 C 494.77 22.26 493.31 18.96 491.88 15.65 Z" />
<path fill="#ffffff" opacity="1.00" d=" M 526.57 16.40 C 526.52 14.50 526.50 12.61 526.50 10.71 C 527.44 10.71 529.34 10.70 530.29 10.70 C 530.26 12.61 530.24 14.52 530.20 16.43 C 531.87 16.44 533.53 16.44 535.21 16.45 C 535.21 17.22 535.22 18.75 535.22 19.52 C 533.53 19.54 531.86 19.56 530.18 19.58 C 530.36 23.01 530.06 26.45 530.40 29.86 C 530.93 32.25 533.86 31.66 535.40 30.66 C 535.79 31.32 536.58 32.65 536.97 33.31 C 533.65 35.83 528.21 35.32 526.72 31.00 C 526.26 27.24 526.58 23.43 526.59 19.65 C 525.93 19.59 524.60 19.46 523.94 19.40 C 524.00 18.66 524.13 17.19 524.19 16.46 C 524.78 16.44 525.97 16.41 526.57 16.40 Z" />
<path fill="#ffffff" opacity="1.00" d=" M 510.09 17.12 C 513.35 15.40 517.24 16.37 520.37 17.94 C 519.81 18.85 519.26 19.77 518.72 20.69 C 516.05 19.40 511.41 18.12 510.42 22.09 C 513.32 23.39 516.67 23.76 519.25 25.72 C 521.77 27.98 520.87 32.43 517.98 33.97 C 514.06 35.97 509.44 34.48 505.96 32.26 C 506.59 31.27 507.24 30.27 507.88 29.28 C 510.65 31.19 515.80 33.43 517.43 29.06 C 514.63 27.15 511.00 26.85 508.40 24.65 C 506.13 22.41 507.32 18.36 510.09 17.12 Z" />
<path fill="#ffffff" opacity="1.00" d=" M 540.11 18.73 C 544.11 16.01 550.65 14.64 554.03 18.97 C 556.17 23.85 554.70 29.41 555.15 34.58 C 553.93 34.61 552.73 34.64 551.53 34.67 L 551.67 32.55 C 548.86 34.81 544.55 35.93 541.41 33.72 C 538.26 31.89 538.01 26.35 541.46 24.71 C 544.59 23.11 548.18 23.92 551.55 23.66 C 551.00 22.18 550.90 19.81 548.91 19.59 C 546.43 18.83 544.04 20.08 541.86 21.10 C 541.42 20.50 540.55 19.32 540.11 18.73 M 542.23 29.00 C 544.32 33.75 552.15 31.74 551.53 26.46 C 548.31 26.57 543.91 25.30 542.23 29.00 Z" />
<path fill="#ffffff" opacity="1.00" d=" M 564.50 19.50 C 566.38 17.95 568.33 15.87 571.02 16.23 C 574.25 16.09 577.36 18.70 577.52 21.99 C 577.73 26.20 577.52 30.41 577.64 34.63 C 576.68 34.63 574.76 34.63 573.80 34.63 C 573.68 30.45 574.18 26.22 573.45 22.08 C 572.00 18.15 565.75 19.29 564.89 23.08 C 564.55 26.91 564.82 30.77 564.81 34.61 C 563.48 34.62 562.15 34.62 560.83 34.63 C 560.85 28.56 560.84 22.49 560.84 16.42 C 561.86 16.43 563.90 16.46 564.92 16.48 C 564.82 17.23 564.61 18.74 564.50 19.50 Z" />
<path fill="#ffffff" opacity="1.00" d=" M 583.17 18.73 C 587.28 15.93 594.33 14.53 597.43 19.44 C 599.01 24.31 597.85 29.59 598.22 34.63 C 597.31 34.63 595.50 34.63 594.60 34.63 C 594.62 34.10 594.68 33.04 594.70 32.51 C 591.92 34.84 587.56 35.96 584.43 33.66 C 581.53 31.87 581.08 26.87 584.10 24.99 C 587.26 23.00 591.12 23.94 594.64 23.65 C 594.20 22.12 593.95 19.76 591.94 19.57 C 589.48 18.83 587.15 20.14 584.96 21.05 C 584.51 20.47 583.62 19.31 583.17 18.73 M 586.53 27.39 C 584.47 29.05 586.85 31.75 588.94 31.64 C 592.11 32.29 594.83 29.60 594.60 26.44 C 591.99 26.69 588.66 25.58 586.53 27.39 Z" />
<path fill="#ffffff" opacity="1.00" d=" M 322.15 64.98 C 323.21 50.24 329.09 35.98 338.59 24.68 C 344.51 30.60 350.43 36.52 356.36 42.43 C 351.38 48.99 348.07 56.79 347.17 65.00 C 338.83 64.98 330.49 65.03 322.15 64.98 Z" />
<path fill="#ffffff" opacity="1.00" d=" M 623.81 44.52 C 624.78 42.50 628.01 42.94 628.53 45.11 C 628.93 46.82 626.98 47.62 626.04 48.61 C 624.82 47.67 622.77 46.33 623.81 44.52 Z" />
<path fill="#ffffff" opacity="1.00" d=" M 699.73 43.69 C 701.14 43.71 702.57 43.73 704.00 43.75 L 704.00 68.52 C 702.59 68.85 701.17 69.15 699.76 69.42 C 699.70 60.84 699.76 52.27 699.73 43.69 Z" />
<path fill="#ffffff" opacity="1.00" d=" M 482.42 45.25 C 483.78 45.25 485.15 45.25 486.53 45.25 C 486.48 53.22 486.53 61.19 486.50 69.16 C 485.49 69.16 483.46 69.16 482.45 69.16 C 482.42 61.19 482.47 53.22 482.42 45.25 Z" />
<path fill="#ffffff" opacity="1.00" d=" M 610.17 45.27 C 611.41 45.26 612.65 45.26 613.91 45.27 C 613.88 47.13 613.84 48.98 613.84 50.84 C 615.44 50.84 617.06 50.83 618.68 50.82 C 618.71 51.84 618.75 52.85 618.79 53.87 C 617.14 53.91 615.50 53.92 613.87 53.94 C 613.91 57.28 613.69 60.64 613.97 63.98 C 614.18 65.21 615.43 65.67 616.27 66.39 C 616.97 66.04 618.38 65.33 619.08 64.97 C 619.53 65.97 619.98 66.97 620.44 67.97 C 617.12 70.25 611.96 69.74 610.48 65.59 C 609.87 61.75 610.36 57.81 610.21 53.94 C 609.58 53.93 608.30 53.91 607.67 53.91 C 607.67 53.14 607.68 51.62 607.69 50.85 C 608.33 50.84 609.60 50.81 610.24 50.80 C 610.21 48.95 610.19 47.11 610.17 45.27 Z" />
<path fill="#ffffff" opacity="1.00" d=" M 516.64 45.23 C 517.59 45.24 519.49 45.25 520.44 45.26 C 520.41 47.12 520.38 48.97 520.37 50.83 C 522.00 50.84 523.63 50.83 525.27 50.84 C 525.28 51.59 525.30 53.10 525.31 53.86 C 523.66 53.92 522.03 54.00 520.40 54.09 C 520.45 57.37 520.27 60.65 520.49 63.93 C 520.54 65.16 521.84 65.65 522.63 66.39 C 523.60 65.92 524.59 65.46 525.58 65.01 C 526.04 65.98 526.49 66.95 526.93 67.93 C 523.66 70.22 518.83 69.78 517.04 65.88 C 516.22 62.12 516.81 58.17 516.74 54.34 C 514.37 54.52 513.94 52.90 514.10 50.89 C 514.76 50.86 516.07 50.80 516.73 50.76 C 516.69 48.92 516.65 47.07 516.64 45.23 Z" />
<path fill="#ffffff" opacity="1.00" d=" M 385.48 47.68 C 392.41 45.92 400.11 47.66 405.60 52.25 C 411.43 56.95 414.62 64.64 413.89 72.09 C 413.29 79.32 409.00 86.13 402.72 89.77 C 395.89 93.91 386.88 94.05 379.92 90.14 C 372.65 86.26 367.94 78.20 367.99 69.97 C 367.86 59.68 375.45 50.00 385.48 47.68 Z" />
<path fill="#ffffff" opacity="1.00" d=" M 493.21 50.75 C 495.36 50.69 497.91 50.42 497.22 53.61 C 500.19 49.59 507.27 49.60 509.31 54.50 C 510.33 59.29 509.57 64.29 509.78 69.16 C 508.57 69.16 507.38 69.16 506.19 69.17 C 505.97 64.88 506.69 60.48 505.58 56.29 C 503.96 52.57 497.50 53.97 497.17 57.86 C 497.01 61.63 497.25 65.41 496.94 69.18 C 495.69 69.17 494.44 69.15 493.21 69.14 C 493.19 63.01 493.19 56.88 493.21 50.75 Z" />
<path fill="#ffffff" opacity="1.00" d=" M 552.19 50.82 C 553.45 50.82 554.73 50.83 556.00 50.84 C 555.96 51.65 555.86 53.28 555.82 54.09 C 557.53 52.42 559.48 50.96 561.86 50.43 C 561.85 51.70 561.85 52.97 561.85 54.24 C 559.61 54.69 557.14 55.65 556.45 58.07 C 555.69 61.71 556.42 65.50 555.90 69.19 C 554.66 69.17 553.43 69.15 552.20 69.14 C 552.17 63.03 552.19 56.93 552.19 50.82 Z" />
<path fill="#ffffff" opacity="1.00" d=" M 566.15 50.82 C 567.40 50.82 568.68 50.83 569.95 50.84 C 569.90 51.59 569.80 53.11 569.75 53.87 C 572.79 49.78 580.02 49.37 582.23 54.46 C 583.38 59.24 582.51 64.28 582.76 69.16 C 581.86 69.16 580.04 69.16 579.14 69.16 C 578.95 64.90 579.61 60.53 578.51 56.36 C 576.94 52.51 570.45 53.99 570.02 57.94 C 569.69 61.67 569.99 65.42 569.87 69.17 C 568.62 69.16 567.39 69.16 566.16 69.16 C 566.13 63.04 566.15 56.93 566.15 50.82 Z" />
<path fill="#ffffff" opacity="1.00" d=" M 624.17 50.74 C 625.29 50.76 626.42 50.82 627.56 50.91 C 628.27 51.71 628.06 52.82 628.09 53.79 C 627.81 58.91 627.82 64.03 628.11 69.15 C 626.79 69.15 625.48 69.16 624.18 69.17 C 624.14 63.03 624.15 56.88 624.17 50.74 Z" />
<path fill="#ffffff" opacity="1.00" d=" M 533.31 52.17 C 537.18 49.56 543.06 50.37 545.90 54.14 C 547.53 56.28 547.30 59.09 547.39 61.62 C 542.45 61.65 537.51 61.53 532.58 61.71 C 534.23 66.65 540.70 67.19 544.19 63.99 C 544.85 64.88 545.51 65.78 546.16 66.69 C 542.80 68.93 538.38 70.53 534.51 68.53 C 528.07 65.99 527.40 55.65 533.31 52.17 M 532.65 58.52 C 536.36 58.73 540.09 58.72 543.81 58.57 C 543.14 57.12 542.84 55.22 541.16 54.58 C 537.81 52.64 533.60 54.98 532.65 58.52 Z" />
<path fill="#ffffff" opacity="1.00" d=" M 588.56 53.25 C 592.61 50.26 599.85 49.01 602.84 54.01 C 604.24 58.94 603.23 64.24 603.49 69.32 C 601.79 69.29 599.92 69.39 599.63 67.29 C 597.16 69.02 593.91 70.30 591.01 68.80 C 587.49 67.62 585.96 62.41 588.90 59.87 C 591.94 57.25 596.31 58.60 599.95 58.22 C 599.50 56.76 599.62 54.71 597.80 54.21 C 595.30 52.89 592.69 54.56 590.41 55.52 C 589.95 54.95 589.02 53.82 588.56 53.25 M 591.80 61.88 C 590.61 62.85 591.46 64.21 591.85 65.34 C 592.67 65.61 594.32 66.13 595.14 66.40 C 597.95 65.86 600.26 63.83 599.86 60.75 C 597.21 61.00 594.00 59.99 591.80 61.88 Z" />
<path fill="#ffffff" opacity="1.00" d=" M 639.23 51.09 C 642.98 49.95 647.50 50.99 649.95 54.20 C 653.54 58.64 651.92 66.30 646.50 68.49 C 641.59 71.02 634.85 68.27 633.25 62.97 C 631.49 58.25 634.39 52.48 639.23 51.09 M 639.46 54.75 C 636.03 56.69 635.53 62.05 638.58 64.57 C 641.72 67.57 647.73 65.45 648.05 61.00 C 649.22 56.25 643.64 52.34 639.46 54.75 Z" />
<path fill="#ffffff" opacity="1.00" d=" M 656.68 50.82 C 657.66 50.82 659.60 50.81 660.57 50.81 C 660.54 51.57 660.48 53.09 660.45 53.85 C 663.45 49.54 671.19 49.45 672.95 54.86 C 673.93 59.53 673.16 64.40 673.39 69.16 C 672.46 69.16 670.59 69.17 669.65 69.17 C 669.48 64.96 670.07 60.66 669.21 56.51 C 667.67 52.45 660.77 53.96 660.62 58.13 C 660.46 61.81 660.63 65.49 660.57 69.17 C 659.60 69.17 657.66 69.16 656.69 69.16 C 656.68 63.05 656.69 56.93 656.68 50.82 Z" />
<path fill="#ffffff" opacity="1.00" d=" M 679.23 52.99 C 683.39 50.50 690.04 49.03 693.28 53.66 C 695.02 58.60 693.82 64.00 694.17 69.14 C 693.29 69.15 691.53 69.17 690.66 69.18 C 690.62 68.63 690.56 67.53 690.53 66.98 C 687.87 69.16 684.01 70.46 680.88 68.45 C 677.40 66.84 676.85 60.95 680.44 59.19 C 683.54 57.56 687.23 58.51 690.58 58.23 C 690.08 56.92 690.22 55.02 688.71 54.38 C 686.13 52.77 683.27 54.55 680.86 55.56 C 680.45 54.92 679.64 53.64 679.23 52.99 M 682.60 61.66 C 680.74 62.91 682.12 65.56 683.97 65.91 C 687.33 67.28 690.98 64.34 690.50 60.75 C 687.89 60.97 684.90 60.08 682.60 61.66 Z" />
<path fill="#ffffff" opacity="1.00" d=" M 322.15 75.02 C 330.54 74.97 338.94 75.02 347.34 74.99 C 348.32 82.85 351.56 90.30 356.36 96.56 C 350.28 102.63 344.23 108.71 338.14 114.77 C 328.88 103.57 323.21 89.52 322.15 75.02 Z" />
<path fill="#ffffff" opacity="1.00" d=" M 502.72 81.16 C 501.64 79.39 503.90 78.23 505.01 77.25 C 506.07 78.26 508.28 79.34 507.28 81.12 C 506.47 83.14 503.55 83.18 502.72 81.16 Z" />
<path fill="#ffffff" opacity="1.00" d=" M 598.45 80.91 C 597.93 79.07 599.88 78.25 601.01 77.25 C 602.01 78.24 604.23 79.38 603.21 81.06 C 602.38 83.35 599.26 82.96 598.45 80.91 Z" />
<path fill="#ffffff" opacity="1.00" d=" M 629.28 78.38 C 630.59 78.37 631.91 78.37 633.23 78.37 C 633.21 86.80 633.21 95.22 633.23 103.65 C 631.91 103.66 630.59 103.66 629.29 103.66 C 629.33 95.24 629.34 86.81 629.28 78.38 Z" />
<path fill="#ffffff" opacity="1.00" d=" M 482.42 103.66 C 482.47 95.69 482.43 87.72 482.44 79.75 C 487.75 79.77 493.06 79.77 498.37 79.76 C 498.37 80.70 498.39 82.60 498.39 83.55 C 494.42 83.54 490.46 83.54 486.49 83.52 C 486.50 85.76 486.50 88.01 486.50 90.26 C 490.04 90.24 493.58 90.22 497.13 90.27 C 497.13 91.42 497.13 92.57 497.13 93.72 C 493.58 93.76 490.03 93.75 486.49 93.73 C 486.50 97.04 486.51 100.35 486.53 103.66 C 485.15 103.66 483.78 103.66 482.42 103.66 Z" />
<path fill="#ffffff" opacity="1.00" d=" M 516.29 88.69 C 518.28 87.11 520.28 84.94 523.08 85.26 C 526.32 85.18 529.40 87.72 529.56 91.04 C 529.76 95.24 529.55 99.46 529.66 103.67 C 528.70 103.67 526.78 103.66 525.83 103.65 C 525.69 99.47 526.22 95.21 525.45 91.08 C 523.96 87.23 517.97 88.34 516.94 91.97 C 516.56 95.85 516.86 99.77 516.82 103.66 C 515.49 103.66 514.17 103.65 512.85 103.64 C 512.87 97.58 512.86 91.52 512.86 85.46 C 513.91 85.49 516.01 85.55 517.06 85.58 C 516.86 86.36 516.48 87.91 516.29 88.69 Z" />
<path fill="#ffffff" opacity="1.00" d=" M 535.37 87.79 C 539.45 85.00 546.36 83.61 549.55 88.34 C 551.20 93.24 549.97 98.61 550.36 103.69 C 549.47 103.68 547.69 103.66 546.80 103.65 C 546.80 103.12 546.81 102.08 546.81 101.56 C 544.07 104.01 539.61 104.93 536.51 102.63 C 533.96 100.89 533.44 96.88 535.49 94.59 C 538.68 91.95 543.04 92.99 546.83 92.67 C 546.42 91.31 546.33 89.61 544.90 88.88 C 542.29 87.53 539.53 89.10 537.11 90.08 C 536.68 89.51 535.81 88.36 535.37 87.79 M 538.01 98.01 C 539.13 103.09 547.92 100.56 546.77 95.49 C 543.95 95.81 538.74 94.02 538.01 98.01 Z" />
<path fill="#ffffff" opacity="1.00" d=" M 556.17 85.49 C 557.47 85.48 558.78 85.48 560.10 85.48 C 560.08 86.20 560.04 87.64 560.02 88.36 C 561.76 86.92 563.54 85.04 566.03 85.26 C 569.27 85.05 572.63 87.50 572.74 90.89 C 572.97 95.13 572.74 99.39 572.88 103.64 C 571.63 103.65 570.38 103.66 569.14 103.66 C 569.01 99.44 569.70 95.10 568.63 90.97 C 567.15 87.18 561.00 88.40 560.25 92.10 C 559.94 95.94 560.20 99.80 560.14 103.65 C 558.81 103.66 557.49 103.66 556.17 103.66 C 556.23 97.60 556.24 91.55 556.17 85.49 Z" />
<path fill="#ffffff" opacity="1.00" d=" M 581.78 86.76 C 585.71 84.20 590.89 85.13 594.46 87.90 C 593.68 88.85 592.90 89.80 592.14 90.74 C 589.81 89.34 586.94 87.71 584.34 89.53 C 580.02 91.48 580.55 98.37 584.88 99.94 C 587.46 101.44 590.28 99.87 592.30 98.19 C 593.04 99.05 593.77 99.92 594.51 100.80 C 590.90 104.04 584.99 105.26 581.00 102.01 C 576.04 98.41 576.44 89.82 581.78 86.76 Z" />
<path fill="#ffffff" opacity="1.00" d=" M 598.91 85.52 C 600.23 85.50 601.54 85.48 602.87 85.47 C 602.84 91.52 602.81 97.58 602.90 103.64 C 601.56 103.64 600.24 103.65 598.92 103.64 C 598.92 97.60 598.93 91.56 598.91 85.52 Z" />
<path fill="#ffffff" opacity="1.00" d=" M 608.60 87.77 C 612.08 85.55 616.73 84.19 620.59 86.25 C 622.54 87.08 623.48 89.27 623.57 91.29 C 623.73 95.41 623.57 99.54 623.65 103.67 C 622.43 103.67 621.22 103.65 620.02 103.64 C 620.09 103.10 620.23 102.01 620.30 101.46 C 617.77 103.58 614.22 104.71 611.05 103.39 C 607.43 102.18 606.08 96.78 609.14 94.29 C 612.34 91.99 616.44 93.01 620.10 92.66 C 619.68 91.19 619.50 89.41 617.88 88.75 C 615.32 87.64 612.73 89.08 610.44 90.13 C 609.98 89.54 609.06 88.36 608.60 87.77 M 611.35 96.98 C 610.36 100.40 615.15 101.61 617.53 100.23 C 619.49 99.48 619.78 97.33 620.07 95.52 C 617.18 95.69 613.52 94.44 611.35 96.98 Z" />
<path fill="#ffffff" opacity="1.00" d=" M 503.05 85.50 C 504.34 85.49 505.63 85.49 506.93 85.50 C 506.86 91.54 506.85 97.59 506.94 103.64 C 505.64 103.65 504.34 103.65 503.05 103.65 C 503.12 97.60 503.12 91.55 503.05 85.50 Z" />
<path fill="#ffffff" opacity="1.00" d=" M 426.51 94.01 C 433.14 100.69 439.91 107.24 446.55 113.91 C 435.50 127.56 419.27 136.95 401.82 139.31 C 381.56 142.30 360.25 135.74 345.10 121.99 C 351.21 115.86 357.34 109.74 363.46 103.61 C 373.61 111.65 387.38 114.87 400.02 111.95 C 410.73 109.63 420.26 102.95 426.51 94.01 Z" />
<path fill="#ffffff" opacity="1.00" d=" M 486.14 116.14 C 491.30 112.39 498.80 113.34 503.20 117.84 C 502.32 118.75 501.46 119.66 500.60 120.58 C 496.86 117.00 490.19 116.58 486.91 120.97 C 482.73 125.84 486.50 134.64 493.03 134.60 C 495.79 135.02 498.09 133.31 500.20 131.79 C 501.06 132.63 501.94 133.48 502.82 134.33 C 498.35 139.50 489.68 140.07 484.77 135.25 C 479.22 130.28 479.86 120.23 486.14 116.14 Z" />
<path fill="#ffffff" opacity="1.00" d=" M 552.39 114.43 C 553.35 114.42 555.27 114.40 556.22 114.39 C 556.21 116.31 556.20 118.24 556.21 120.16 C 557.85 120.16 559.49 120.17 561.15 120.18 C 561.15 120.95 561.14 122.47 561.13 123.23 C 559.47 123.23 557.83 123.23 556.18 123.24 C 556.31 126.71 555.96 130.22 556.40 133.67 C 557.16 135.90 559.79 135.16 561.35 134.27 C 561.73 134.97 562.48 136.37 562.85 137.08 C 560.31 138.40 557.01 139.50 554.60 137.28 C 550.73 133.71 553.07 127.85 552.47 123.23 C 551.87 123.23 550.66 123.23 550.05 123.23 C 549.59 121.16 550.07 119.73 552.46 119.90 C 552.45 118.08 552.41 116.25 552.39 114.43 Z" />
<path fill="#ffffff" opacity="1.00" d=" M 510.43 121.29 C 514.27 118.72 519.96 119.61 522.82 123.24 C 524.50 125.37 524.32 128.21 524.39 130.77 C 519.46 130.81 514.53 130.71 509.60 130.83 C 511.24 135.74 517.61 136.54 521.19 133.22 C 521.85 134.10 522.52 134.99 523.20 135.88 C 519.64 138.30 514.83 139.74 510.86 137.42 C 504.90 134.39 504.59 124.60 510.43 121.29 M 509.66 127.71 C 513.39 127.89 517.13 127.90 520.86 127.72 C 520.10 125.53 518.72 123.01 516.01 123.20 C 512.98 122.71 510.47 124.94 509.66 127.71 Z" />
<path fill="#ffffff" opacity="1.00" d=" M 528.91 120.17 C 530.25 120.17 531.59 120.17 532.93 120.18 C 532.88 120.92 532.76 122.40 532.71 123.14 C 535.57 118.78 543.14 118.56 545.15 123.77 C 546.27 128.51 545.37 133.50 545.69 138.34 C 544.41 138.33 543.14 138.32 541.88 138.31 C 541.70 134.05 542.37 129.66 541.36 125.48 C 539.70 121.75 533.50 123.13 532.94 126.97 C 532.66 130.75 532.90 134.55 532.86 138.34 C 531.54 138.33 530.22 138.32 528.91 138.30 C 528.92 132.26 528.91 126.21 528.91 120.17 Z" />
<path fill="#ffffff" opacity="1.00" d=" M 570.12 123.25 C 571.78 121.58 573.65 120.07 576.05 119.66 C 576.06 120.56 576.08 122.37 576.10 123.27 C 573.82 123.93 571.13 124.74 570.51 127.37 C 569.83 130.96 570.33 134.67 570.21 138.32 C 569.22 138.32 567.25 138.33 566.26 138.33 C 566.30 132.28 566.31 126.23 566.25 120.18 C 567.23 120.17 569.19 120.15 570.17 120.14 C 570.15 120.92 570.13 122.47 570.12 123.25 Z" />
<path fill="#ffffff" opacity="1.00" d=" M 580.61 123.66 C 583.86 118.98 591.42 118.49 595.19 122.78 C 597.17 124.93 597.05 128.03 597.19 130.75 C 592.24 130.82 587.29 130.71 582.35 130.83 C 584.01 135.75 590.37 136.52 593.98 133.27 C 594.62 134.15 595.27 135.03 595.92 135.92 C 592.32 138.37 587.42 139.74 583.44 137.33 C 578.72 134.72 577.80 127.95 580.61 123.66 M 582.47 127.76 C 586.15 127.87 589.82 127.84 593.50 127.80 C 592.92 125.63 591.59 123.19 589.01 123.22 C 585.90 122.63 583.23 124.87 582.47 127.76 Z" />
</g>
</svg>
