<?xml version="1.0" encoding="UTF-8" ?>
<!DOCTYPE svg PUBLIC "-//W3C//DTD SVG 1.1//EN" "http://www.w3.org/Graphics/SVG/1.1/DTD/svg11.dtd">
<svg width="187pt" height="36pt" viewBox="0 0 187 36" version="1.1" xmlns="http://www.w3.org/2000/svg">
<g id="#ffffffff">
<path fill="#ffffff" opacity="1.00" d=" M 157.28 0.00 L 158.61 0.00 C 162.03 0.79 161.51 6.07 157.97 6.06 C 154.51 5.99 154.01 0.96 157.28 0.00 Z" />
<path fill="#ffffff" opacity="1.00" d=" M 88.00 4.00 C 90.24 4.00 92.49 4.00 94.73 4.00 C 94.73 5.85 94.73 7.69 94.74 9.53 C 96.49 9.53 98.24 9.53 99.99 9.53 C 100.00 11.02 100.00 12.51 100.00 14.00 C 98.25 14.00 96.49 14.00 94.74 14.00 C 94.79 17.18 94.42 20.40 95.22 23.52 C 96.52 23.49 97.82 23.37 99.12 23.17 C 99.53 24.72 99.94 26.28 100.35 27.83 C 97.23 29.02 93.31 29.89 90.47 27.61 C 88.39 26.15 87.97 23.45 88.00 21.10 C 87.98 15.40 88.01 9.70 88.00 4.00 Z" />
<path fill="#ffffff" opacity="1.00" d=" M 3.41 10.45 C 8.15 6.35 16.11 7.53 19.67 12.66 C 18.08 13.63 16.48 14.58 14.88 15.53 C 13.46 14.64 12.06 12.98 10.19 13.48 C 5.65 14.38 5.45 22.15 9.79 23.51 C 11.85 24.09 13.58 22.80 14.91 21.39 C 16.54 22.35 18.17 23.32 19.79 24.30 C 16.04 29.96 6.86 30.78 2.39 25.62 C 0.77 23.92 0.33 21.52 0.00 19.29 L 0.00 17.54 C 0.38 14.91 1.30 12.20 3.41 10.45 Z" />
<path fill="#ffffff" opacity="1.00" d=" M 22.26 8.00 C 24.51 8.00 26.76 8.00 29.01 8.00 C 29.00 8.86 28.98 10.59 28.96 11.45 C 30.56 9.38 32.86 8.12 35.45 7.83 C 35.47 9.83 35.47 11.84 35.48 13.85 C 33.08 13.98 30.03 14.53 29.19 17.17 C 28.74 21.09 29.11 25.06 29.00 29.00 C 26.75 29.00 24.51 29.00 22.26 29.00 C 22.27 22.00 22.27 15.00 22.26 8.00 Z" />
<path fill="#ffffff" opacity="1.00" d=" M 38.00 8.00 C 40.25 8.00 42.50 8.00 44.74 8.00 C 44.82 11.63 44.45 15.29 44.97 18.89 C 45.93 21.95 50.69 21.56 51.59 18.63 C 52.44 15.17 51.85 11.53 51.99 8.00 C 54.24 8.00 56.49 8.00 58.74 8.00 C 58.63 14.54 58.93 21.09 58.61 27.62 C 58.36 32.45 53.74 35.60 49.26 36.00 L 47.32 36.00 C 44.40 35.68 41.63 34.69 38.90 33.67 C 39.40 32.08 39.93 30.49 40.47 28.90 C 43.50 29.99 47.00 31.73 50.14 30.03 C 52.35 28.85 51.89 26.04 52.17 23.96 C 48.81 27.94 41.36 28.28 38.91 23.20 C 37.17 18.35 38.32 13.04 38.00 8.00 Z" />
<path fill="#ffffff" opacity="1.00" d=" M 64.00 8.00 C 66.26 8.00 68.52 8.00 70.78 8.01 C 70.74 8.60 70.67 9.78 70.63 10.37 C 72.98 8.64 75.92 7.37 78.86 8.34 C 88.14 10.54 88.06 26.57 78.81 28.74 C 75.84 29.75 72.86 28.37 70.63 26.45 C 70.77 29.63 70.75 32.82 70.73 36.00 L 64.00 36.00 C 64.00 26.67 64.00 17.33 64.00 8.00 M 74.30 13.01 C 70.13 13.93 69.63 20.12 72.41 22.73 C 74.46 24.64 78.13 23.27 78.67 20.58 C 79.93 17.50 78.23 12.54 74.30 13.01 Z" />
<path fill="#ffffff" opacity="1.00" d=" M 104.19 11.29 C 107.28 7.16 113.90 6.91 117.44 10.60 C 117.37 9.96 117.23 8.69 117.16 8.05 C 119.44 8.00 121.72 8.00 124.00 7.99 C 124.00 15.00 124.00 22.00 124.00 29.00 C 121.74 29.00 119.49 29.00 117.23 28.99 C 117.26 28.38 117.32 27.15 117.35 26.53 C 113.91 29.87 107.97 29.71 104.68 26.26 C 101.22 22.15 101.12 15.64 104.19 11.29 M 110.46 14.41 C 107.28 16.99 108.43 23.78 112.94 24.04 C 117.13 24.01 118.39 18.51 116.52 15.46 C 115.47 13.24 112.18 12.68 110.46 14.41 Z" />
<path fill="#ffffff" opacity="1.00" d=" M 129.26 8.00 C 131.51 8.00 133.76 8.00 136.02 8.00 C 136.00 8.82 135.97 10.46 135.95 11.28 C 138.03 8.59 141.66 7.23 144.95 8.35 C 147.86 9.08 149.76 11.96 149.89 14.87 C 150.16 19.57 149.92 24.29 150.00 29.00 C 147.75 29.00 145.51 29.00 143.26 29.00 C 143.12 24.70 143.57 20.36 143.04 16.08 C 141.84 12.63 136.32 13.72 136.09 17.25 C 135.84 21.16 136.08 25.08 136.00 29.00 C 133.75 29.00 131.51 29.00 129.26 29.00 C 129.27 22.00 129.27 15.00 129.26 8.00 Z" />
<path fill="#ffffff" opacity="1.00" d=" M 154.26 8.00 C 156.51 8.00 158.75 8.00 161.00 8.00 C 161.00 15.00 161.00 22.00 161.00 29.00 C 158.75 29.00 156.51 29.00 154.26 29.00 C 154.27 22.00 154.27 15.00 154.26 8.00 Z" />
<path fill="#ffffff" opacity="1.00" d=" M 167.66 10.72 C 170.97 7.07 176.96 7.22 180.46 10.52 C 180.39 9.90 180.23 8.65 180.16 8.03 C 182.44 8.01 184.72 8.00 187.00 7.99 L 187.00 29.00 C 184.74 29.00 182.48 29.00 180.23 29.00 C 180.26 28.41 180.33 27.25 180.36 26.67 C 176.80 29.72 171.08 29.76 167.75 26.34 C 164.08 22.07 164.06 15.03 167.66 10.72 M 173.42 14.43 C 170.28 17.04 171.45 23.79 175.95 24.04 C 179.48 24.08 181.00 19.91 180.14 16.98 C 179.72 13.93 175.71 12.12 173.42 14.43 Z" />
</g>
</svg>
