<?xml version="1.0" encoding="UTF-8"?>
<svg width="1043px" height="528px" viewBox="0 0 1043 528" version="1.1" xmlns="http://www.w3.org/2000/svg" xmlns:xlink="http://www.w3.org/1999/xlink">
    <!-- Generator: Sketch 47 (45396) - http://www.bohemiancoding.com/sketch -->
    <title>Group</title>
    <desc>Created with Sketch.</desc>
    <defs></defs>
    <g id="Page-1" stroke="none" stroke-width="1" fill="none" fill-rule="evenodd">
        <g id="Group" fill-rule="nonzero" fill="#FFFFFF">
            <path d="M73.31,0 L76.86,0 C73.66,6.59 70.26,13.09 66.43,19.35 C46.96,53.85 27.2,88.2 7.76,122.72 C5.84,126.04 3.76,129.26 1.54,132.39 C11.68,132.91 21.85,132.64 32,132.69 C62.69,132.66 93.38,132.76 124.06,132.63 C126.95,132.71 130.04,132.84 132.57,134.41 C132.34,139.3 130.84,144.02 130.4,148.89 C129.64,156.65 127,164.07 126.26,171.82 C125.74,176.68 124.96,181.51 123.75,186.25 C121.72,194.14 121.8,202.39 119.65,210.26 C117.41,218.34 117.56,226.83 115.35,234.91 C113.13,243.04 113.23,251.57 111.07,259.71 C109.85,264.42 109.09,269.24 108.6,274.08 C107.85,281.83 105.03,289.23 104.54,297.02 C103.95,305.43 100.86,313.42 100.24,321.83 C99.6,330.15 96.67,338.06 95.9,346.35 C95.45,351.24 94.58,356.08 93.35,360.84 C91.36,368.45 91.66,376.46 89.43,384.03 C87.87,389.39 87.33,394.96 87.31,400.53 C129.96,400.46 172.62,400.68 215.27,400.42 C217.34,394.41 219.27,388.28 219.59,381.89 C220.09,373.1 223.58,364.83 224.03,356.04 C224.54,347.97 227.7,340.36 228.27,332.3 C228.65,327.21 229.66,322.19 230.98,317.27 C232.8,310.43 232.44,303.23 234.32,296.4 C237.15,287.32 236.64,277.63 239.37,268.53 C241.54,260.95 241.09,252.92 243.28,245.34 C244.6,240.64 245.36,235.81 245.72,230.95 C246.31,223.16 249.37,215.8 249.82,207.99 C250.34,198.95 253.96,190.45 254.39,181.4 C254.85,173.36 258.19,165.83 258.55,157.79 C259.05,149.39 261.86,141.41 263.58,133.23 C271.02,132.34 278.52,132.73 286,132.7 C314.33,132.69 342.67,132.69 371,132.7 C379.67,132.75 388.38,132.27 397,133.45 C396.18,140 394.54,146.42 394.01,153 C393.41,161.09 390.23,168.71 389.74,176.82 C389.27,185.42 385.79,193.5 385.39,202.11 C384.91,210.24 381.65,217.89 381.2,226.02 C380.7,234.8 377.19,243.05 376.72,251.83 C376.38,259.53 373.31,266.76 372.64,274.41 C372.01,284.36 368.25,293.78 367.79,303.76 C367.07,310.26 364.68,316.44 364.08,322.95 C363.57,328.41 362.89,333.87 361.38,339.16 C359.26,346.7 359.64,354.67 357.43,362.18 C355.09,370 355.5,378.31 353.31,386.16 C352,390.84 351.3,395.67 351.14,400.52 C389.75,400.57 428.37,400.46 466.99,400.57 C470.98,400.44 475.16,401.15 479.01,399.85 C484.56,392.15 482.32,381.85 484.97,373.13 C487.73,364.27 487.19,354.83 489.79,345.95 C491.98,338.4 491.65,330.42 493.69,322.84 C495.06,317.78 495.91,312.6 496.38,307.38 C497.04,299.41 500.2,291.88 500.56,283.86 C501.02,275.74 504.23,268.09 504.72,259.98 C505.21,251.23 508.69,243.02 509.21,234.28 C509.6,225.94 512.95,218.11 513.47,209.78 C513.89,201.35 517.36,193.44 517.78,185 C518.2,177.51 520.89,170.42 521.8,163 C522.82,153.04 524.59,143.05 527.7,133.54 C532.27,131.91 537.25,132.82 542,132.67 C578.69,132.71 615.38,132.74 652.07,132.64 C654.96,132.8 658.22,132.67 660.62,134.58 C660.99,139.53 658.79,144.18 658.21,149.04 C657.44,154.84 657.14,160.74 655.44,166.38 C653.16,174.08 653.42,182.25 651.25,189.98 C648.82,198.31 649.1,207.12 646.77,215.48 C644.55,223.31 644.85,231.58 642.66,239.42 C641.44,243.85 640.69,248.39 640.29,252.96 C639.63,260.73 636.74,268.11 636.17,275.9 C635.54,285.17 632.16,293.98 631.54,303.25 C630.91,312.42 627.46,321.4 628.85,330.67 C629.7,336.31 630.81,341.92 631.94,347.52 C636.16,364.23 647.01,379.08 661.49,388.39 C672.93,395.78 686.5,399.43 699.95,400.51 C772.78,400.47 845.6,400.62 918.43,400.44 C943.19,356.51 968.53,312.91 992.86,268.74 C918.34,268.27 843.8,268.89 769.28,268.43 C768.94,263.03 769.14,257.55 770.61,252.31 C772.91,243.96 772.91,235.19 775.19,226.83 C777.28,218.99 777.23,210.77 779.29,202.93 C781.47,194.83 781.45,186.35 783.61,178.26 C785.88,169.85 785.83,161.05 788.01,152.63 C789.64,146.28 790.18,139.72 791.41,133.3 C847.63,133.24 903.85,133.27 960.06,133.29 C962.13,133.14 964.66,133.03 965.96,131.12 C968.71,127.38 970.63,123.13 972.92,119.11 C993.99,82.17 1014.96,45.17 1035.99,8.22 C1037.61,5.66 1039.87,3.64 1042,1.51 L1042,5.29 C1034.39,13.45 1030.94,24.19 1025.52,33.71 C1018.76,45.06 1012.42,56.65 1006.01,68.21 C994.05,88.94 982.24,109.76 970.44,130.57 C969,133.39 966.47,135.78 963.08,135.36 C908.69,135.29 854.3,135.39 799.92,135.3 C797.75,135.38 795.52,135.56 793.56,136.53 C790.97,144.26 792.84,152.81 789.97,160.52 C786.92,168.11 787.71,176.53 785.04,184.23 C781.96,192.78 784.91,202.22 781.31,210.65 C778.27,218.06 779.82,226.35 777.22,233.87 C775.75,238.01 774.67,242.28 774.31,246.67 C773.7,253.33 771.6,259.71 770.3,266.25 C793.86,266.73 817.43,266.32 841,266.46 C890.35,266.44 939.71,266.5 989.06,266.42 C991.24,266.58 994.04,266.5 995.36,268.62 C995.27,273.58 991.75,277.58 989.61,281.83 C967.32,320.6 945.6,359.7 923.33,398.48 C922.14,400.07 920.91,402.08 918.77,402.39 C913.87,403.06 908.91,402.61 904,402.68 C834.32,402.64 764.63,402.69 694.95,402.66 C688.4,402.91 682.18,400.72 676.05,398.72 C652.72,392.07 634.59,371.69 628.55,348.47 C624.03,337.84 625.92,326.15 625.58,314.95 C625.34,307.69 629.47,301.23 629.62,294.02 C629.84,288.59 630.47,283.13 632.26,277.97 C634.61,271.07 634.62,263.68 636.68,256.7 C638.05,251.94 638.51,247 639.04,242.09 C639.65,235.94 641.97,230.13 642.63,223.99 C643.23,218.72 643.65,213.4 645.23,208.32 C646.67,203.68 647.35,198.85 647.59,194.01 C647.89,186.75 650.92,179.97 651.44,172.74 C651.83,167.49 652.56,162.26 654.04,157.19 C656.06,150.11 656.47,142.71 656.68,135.39 C632.46,135.04 608.23,135.34 584,135.24 C565.55,135.34 547.1,135.02 528.65,135.42 C528.48,139.27 528.32,143.14 527.77,146.96 C526.95,153.4 524.44,159.5 523.98,165.99 C523.56,171.2 522.97,176.41 521.45,181.43 C519.09,188.96 519.84,197.02 517.52,204.56 C514.83,212.83 515.56,221.71 513.04,230.01 C511.52,235.13 510.97,240.45 510.5,245.75 C509.92,252.63 506.89,259.06 506.67,266 C506.49,271 506.08,276.03 504.52,280.82 C501.88,288.66 502.44,297.11 499.97,305 C497.52,312.79 498.17,321.14 495.88,328.96 C494.52,333.65 493.74,338.48 493.39,343.35 C492.85,350.81 489.78,357.81 489.41,365.3 C489.07,371.07 487.94,376.76 486.39,382.32 C484.81,388.06 485.28,394.13 483.71,399.86 C483.42,401.79 481.17,402 479.64,402.38 C474.78,403.02 469.87,402.63 465,402.68 C434.67,402.64 404.33,402.69 374,402.66 C365.59,402.64 357.16,402.96 348.77,402.18 C348.68,394.21 349.14,386.13 351.53,378.47 C353.85,370.99 353.26,362.99 355.51,355.49 C358.1,347.23 357.56,338.39 360.04,330.1 C362.48,322.03 361.91,313.43 364.29,305.35 C365.63,300.65 366.32,295.81 366.69,290.95 C367.27,283.49 370.4,276.51 370.71,269.01 C371.12,260.21 374.68,251.96 375.18,243.17 C375.66,234.8 379.05,226.93 379.45,218.54 C379.78,210.17 383.32,202.35 383.7,193.99 C384.07,185.48 387.51,177.52 388.07,169.04 C388.47,163.97 389.47,158.98 390.83,154.08 C392.53,147.97 392.62,141.6 392.61,135.3 C350.08,135.21 307.56,135.18 265.04,135.31 C264.42,142.21 265.02,149.33 262.6,155.94 C260.79,160.73 260.39,165.85 260.25,170.92 C260.03,177.1 257.17,182.74 256.39,188.82 C255.9,192.18 255.77,195.59 255.35,198.97 C254.74,204.2 252.48,209.06 251.8,214.28 C251.14,219.18 250.39,224.07 249.07,228.84 C247.02,236.18 247.51,243.95 245.4,251.28 C243.98,256.33 243.19,261.52 242.74,266.74 C242.12,274.73 238.93,282.27 238.55,290.31 C238.19,298.08 234.98,305.34 234.47,313.09 C234.1,318.06 233.31,323 231.95,327.81 C229.66,335.7 230.31,344.1 227.92,351.97 C226.43,357.02 225.76,362.25 225.4,367.48 C224.96,374.09 222.22,380.27 221.67,386.86 C221.25,391.01 221.35,395.27 220.1,399.3 C219.19,402.75 214.86,402.46 212.04,402.7 C172,402.66 131.96,402.6 91.92,402.74 C89.77,402.63 87.39,402.71 85.58,401.35 C84.46,393.33 86.18,385.23 88.19,377.49 C90.25,369.63 89.93,361.35 92.26,353.55 C94.67,345.47 94.1,336.87 96.55,328.8 C98.9,321.01 98.36,312.71 100.65,304.91 C103.13,296.62 102.8,287.81 105.16,279.5 C107.52,271.42 107.06,262.85 109.44,254.78 C111.9,246.71 111.26,238.1 113.73,230.04 C116.22,221.71 115.79,212.86 118.22,204.52 C120.53,196.45 120.12,187.9 122.5,179.84 C124.91,171.68 124.2,162.99 126.64,154.84 C128.44,148.58 129.14,142.1 129.72,135.64 C126.15,135.38 122.58,135.21 119,135.21 C84.67,135.29 50.33,135.2 15.99,135.26 C10.65,135.28 5.33,134.85 0,134.59 L0,127.51 C9.02,116.08 14.53,102.45 22.29,90.2 C39.18,60.07 56.75,30.31 73.31,0 Z" id="Shape"></path>
            <path d="M682.132314,0 L684.352314,0 C684.102314,3.16 683.932314,6.33 683.652314,9.49 C683.072314,16.5 680.232314,23.08 679.652314,30.09 C678.852314,40.64 674.052314,50.69 675.722314,61.44 C679.622314,56 682.742314,50.04 686.812314,44.72 C697.932314,30.33 712.032314,18.19 728.272314,9.93 C735.902314,5.56 744.702314,4.04 752.472314,0 L758.962314,0 C754.372314,4.3 748.082314,4.89 742.322314,6.49 C726.092314,12.19 711.032314,21.47 699.142314,33.95 C687.052314,45.47 678.782314,60.26 671.802314,75.26 C671.062314,72.91 669.942314,70.56 670.002314,68.05 C670.352314,64.49 671.602314,61.1 672.352314,57.62 C673.792314,51.48 673.462314,45.07 675.092314,38.96 C676.412314,34.06 677.552314,29.1 677.882314,24.02 C678.442314,15.86 681.552314,8.16 682.132314,0 Z" id="Shape"></path>
            <path d="M680.03,467.001002 C682.48,466.971002 684.87,467.621002 687.26,468.141002 C686.64,470.281002 686.01,472.421002 685.49,474.591002 C683.26,483.021002 684.81,491.981002 682.02,500.311002 C679.11,509.111002 680.29,518.481002 678.87,527.521002 L670,527.521002 C672.17,519.381002 673.87,511.041002 673.92,502.581002 C673.9,494.691002 677.61,487.401002 677.8,479.541002 C678.09,475.321002 677.75,470.761002 680.03,467.001002 L680.03,467.001002 Z M681.37,471.411002 C679.75,478.001002 679.51,484.881002 680.99,491.531002 C682.21,484.891002 682.17,478.091002 681.37,471.411002 L681.37,471.411002 Z M676.46,520.611002 C678.16,513.701002 678.12,506.541002 676.98,499.551002 C675.71,506.501002 675.6,513.601002 676.46,520.611002 Z" id="Shape"></path>
            <path d="M363,472.778326 C365.11,470.698326 367.13,468.078326 370.21,467.448326 C373.13,466.878326 376.13,467.018326 379.1,467.008326 C387.89,467.178326 396.77,466.508326 405.48,468.158326 C405.59,470.168326 405.71,472.178326 405.83,474.198326 C400.44,475.298326 394.73,474.418326 389.49,476.108326 C385.73,479.818326 386.08,485.798326 385.66,490.708326 C385.63,496.708326 384.75,502.668326 383.18,508.458326 C381.56,514.408326 381.38,520.608326 380.11,526.618326 L379.15,526.618326 C379.48,518.868326 379.52,511.108326 379.16,503.368326 C377.03,510.938326 376.14,518.848326 377.86,526.618326 L374.59,526.618326 C375.17,516.638326 375.12,506.488326 377.92,496.798326 C379.89,489.788326 379.74,482.458326 379.68,475.248326 C374.02,475.438326 368.23,475.168326 363,472.778326 L363,472.778326 Z M379.38,471.558326 C380.84,473.968326 383.21,476.338326 382.52,479.408326 C381.3,486.428326 381.41,493.588326 382.19,500.658326 C384.11,492.698326 383.55,484.498326 383.34,476.398326 C385.9,474.928326 388.48,473.468326 391.04,471.978326 C387.19,471.228326 383.26,471.128326 379.38,471.558326 Z" id="Shape"></path>
            <path d="M588,486.28 C593.01,481.99 595.37,475.79 598.13,470 C601.47,473.41 601.51,478.17 600.69,482.55 C605.1,483.32 609.47,484.46 613.49,486.48 C608.99,489.55 603.55,490.39 598.25,491 C597.83,494.14 597.51,497.29 597.23,500.44 C596.64,507.38 594.93,514.37 596.38,521.32 C598.69,521.78 601.09,522.01 603.28,522.94 C605.05,524.17 606.33,525.95 607.84,527.47 L605.54,527.47 C602.03,525.44 598.28,523.9 594.39,522.8 C594.37,524.35 594.35,525.91 594.34,527.47 L592.22,527.47 C589.59,523.49 587.25,518.66 588.89,513.82 C591.24,504.93 593.85,494.39 588,486.28 L588,486.28 Z M590.25,485.68 C591.6,487.75 593.29,489.84 593.4,492.44 C593.62,497.52 593.24,502.63 593.99,507.68 C595.35,501.6 595.43,495.36 595.43,489.15 C599.91,487.78 604.53,486.97 609.19,486.53 C605.3,485.96 601.49,484.94 597.62,484.31 C595.07,483.89 592.66,485.1 590.25,485.68 Z" id="Shape"></path>
            <path d="M545.52,489.87002 C547.97,486.21002 551.48,482.56002 556.16,482.27002 C560.84,481.94002 565.69,481.69002 570.28,482.92002 C573.69,483.95002 576.89,487.98002 575.17,491.57002 C573.17,494.23002 569.35,492.92002 566.87,491.72002 C563.79,490.45002 560.05,487.53002 556.93,490.31002 C554.13,492.02002 554.59,495.62002 554.37,498.42002 C560.14,499.94002 566.67,501.19002 570.76,505.93002 C574.65,512.66002 571.55,520.81002 567.39,526.63002 L562.71,526.63002 C560.82,525.48002 559.05,524.08002 556.95,523.36002 C553.51,522.53002 550.62,525.13002 547.79,526.63002 L543.53,526.63002 C541.54,523.73002 539.89,520.61002 539,517.20002 C542.36,517.15002 545.91,516.75002 549.08,518.16002 C551.73,519.11002 554.19,520.86002 557.07,521.02002 C561.54,520.22002 564.15,515.97002 565.31,511.92002 C558.86,509.60002 551.83,507.82002 546.62,503.12002 C542.78,499.87002 542.8,493.82002 545.52,489.87002 L545.52,489.87002 Z M557.82,484.65002 C553.78,485.96002 549.18,488.80002 549.61,493.68002 C551.22,491.52002 552.64,489.22002 554.01,486.89002 C558.97,486.83002 563.94,486.85002 568.87,487.46002 C569.16,487.20002 569.73,486.67002 570.01,486.41002 C566.19,484.80002 561.96,483.44002 557.82,484.65002 L557.82,484.65002 Z M561.98,505.77002 C563.71,507.47002 565.96,508.73002 567.21,510.85002 C567.8,513.37002 567.65,515.99002 567.76,518.57002 C568.19,518.38002 569.07,517.98002 569.5,517.79002 C569.45,514.79002 570.09,511.59002 568.83,508.77002 C567.58,506.25002 564.33,506.39002 561.98,505.77002 Z" id="Shape"></path>
            <path d="M419.86,485.78 C423.28,485.51 426.24,483.4 429.63,483 C431.93,483.11 433.89,484.53 435.93,485.45 C431.99,488.61 427.45,490.85 423.08,493.32 C418.47,495.9 416.2,501.11 415.3,506.09 C414.04,513.03 412.78,520.02 410.34,526.67 L405,526.67 C405.01,519.81 406.47,513.1 408.13,506.48 C409.98,499.29 408.31,491.37 411.68,484.57 C414.47,484.36 417.09,485.72 419.86,485.78 L419.86,485.78 Z M424.56,488.68 C421.75,489.55 419.14,490.88 416.45,492.02 C414.51,491.56 413.46,489.52 412.15,488.16 C411.24,495.97 410.72,503.85 411.84,511.67 C413.25,504.97 414.59,497.7 419.54,492.6 C423.29,489.16 428.08,487.19 432.76,485.37 C429.36,483.3 426.67,486.37 424.56,488.68 Z" id="Shape"></path>
            <path d="M452.96799,483.708697 C457.28799,482.798697 461.76799,482.898697 466.15799,483.268697 C471.17799,483.708697 476.17799,487.668697 476.58799,492.908697 C477.54799,504.428697 476.18799,516.108697 472.26799,526.998697 L461.65799,526.998697 C458.69799,525.518697 455.75799,523.398697 452.29799,523.528697 C449.62799,523.448697 447.72799,525.618697 445.69799,526.998697 L444.20799,526.998697 C441.96799,524.288697 439.84799,521.298697 439.21799,517.768697 C437.91799,510.448697 442.55799,502.598697 449.78799,500.578697 C456.79799,498.788697 464.10799,499.928697 471.24799,499.488697 C470.49799,495.518697 468.97799,490.988697 464.64799,489.738697 C458.68799,488.378697 452.85799,491.358697 446.91799,491.628697 C448.42799,488.758697 449.29799,484.538697 452.96799,483.708697 L452.96799,483.708697 Z M453.95799,486.238697 C458.80799,486.738697 463.70799,486.788697 468.56799,486.268697 C463.94799,483.948697 458.64799,484.358697 453.95799,486.238697 L453.95799,486.238697 Z M472.10799,489.298697 C472.10799,493.198697 473.93799,497.908697 471.45799,501.288697 C464.35799,504.218697 456.29799,501.318697 448.92799,503.338697 C455.52799,503.998697 462.26799,502.768697 468.77799,504.338697 C471.53799,504.788697 472.64799,507.658697 473.98799,509.758697 C473.57799,504.458697 474.78799,499.208697 474.58799,493.918697 C474.56799,492.058697 473.05799,490.738697 472.10799,489.298697 L472.10799,489.298697 Z M447.87799,519.298697 C451.80799,523.368697 458.50799,521.628697 462.45799,518.428697 C466.54799,515.978697 467.59799,511.068697 468.74799,506.808697 C463.57799,506.488697 458.37799,506.048697 453.21799,506.618697 C447.68799,507.538697 444.18799,514.688697 447.87799,519.298697 L447.87799,519.298697 Z M441.92799,521.298697 C442.88799,521.458697 443.85799,521.618697 444.82799,521.788697 C443.86799,517.148697 443.72799,512.418697 443.39799,507.718697 C441.64799,512.028697 441.76799,516.728697 441.92799,521.298697 L441.92799,521.298697 Z M464.66799,520.998697 C466.55799,521.548697 468.42799,522.128697 470.31799,522.718697 C470.45799,520.128697 470.54799,517.538697 470.59799,514.948697 C468.64799,516.988697 466.69799,519.028697 464.66799,520.998697 Z" id="Shape"></path>
            <path d="M505.49,485.049486 C511.45,482.879486 518.85,481.529486 524.25,485.769486 C527.94,488.369486 528.63,493.139486 528.51,497.329486 C528.3,507.379486 528.32,517.729486 524.79,527.289486 L517.99,527.289486 C519.47,517.289486 522.88,507.409486 521.91,497.179486 C521.6,494.549486 520.93,491.279486 518.16,490.189486 C512.89,488.409486 506.26,489.589486 503.17,494.599486 C496.36,504.189486 498.7,516.479486 495.9,527.289486 L489,527.289486 C492.84,513.019486 489.78,497.249486 497.32,483.939486 C499.93,484.719486 502.74,486.289486 505.49,485.049486 L505.49,485.049486 Z M508.37,486.309486 C512.43,486.899486 516.51,487.359486 520.59,487.829486 C520.52,487.259486 520.4,486.129486 520.33,485.559486 C516.34,484.779486 512.17,484.679486 508.37,486.309486 L508.37,486.309486 Z M498.62,485.679486 C497.86,489.619486 497.21,493.599486 497.36,497.639486 C499.81,495.409486 501.94,492.859486 504.25,490.489486 C502.28,488.989486 500.4,487.379486 498.62,485.679486 L498.62,485.679486 Z M523.89,494.289486 C524.64,500.509486 524.15,506.769486 524.22,513.019486 C524.51,513.009486 525.08,512.979486 525.36,512.969486 C525.13,504.899486 526.12,496.709486 524.59,488.739486 C524.02,490.529486 523.58,492.399486 523.89,494.289486 L523.89,494.289486 Z M494.62,503.959486 C493.95,509.109486 493.97,514.319486 494.43,519.479486 C495.65,514.399486 495.68,509.069486 494.62,503.959486 Z" id="Shape"></path>
            <path d="M627.144144,489.024183 C632.794144,482.244183 642.804144,480.324183 650.864144,483.474183 C657.074144,486.604183 659.284144,494.124183 659.354144,500.624183 C659.504144,504.234183 657.484144,508.694183 653.454144,508.994183 C644.624144,509.584183 635.744144,508.674183 626.924144,509.454183 C627.344144,514.024183 629.524144,518.634183 634.014144,520.414183 C639.024144,522.814183 643.864144,519.184183 648.414144,517.444183 C650.844144,516.234183 653.254144,517.954183 655.294144,519.154183 C653.184144,521.674183 651.074144,524.184183 648.824144,526.574183 L645.844144,526.574183 C643.264144,525.154183 640.764144,523.104183 637.674144,523.124183 C634.524144,522.914183 632.034144,525.114183 629.474144,526.574183 L626.364144,526.574183 C624.054144,523.174183 621.374144,519.814183 620.674144,515.654183 C619.044144,506.444183 620.064144,495.834183 627.144144,489.024183 L627.144144,489.024183 Z M636.234144,485.764183 C640.814144,486.314183 645.444144,486.374183 650.024144,485.794183 C645.524144,484.724183 640.704144,484.384183 636.234144,485.764183 L636.234144,485.764183 Z M629.824144,498.974183 C636.824144,501.004183 644.174144,500.034183 651.334144,499.974183 C652.194144,494.054183 646.744144,487.824183 640.644144,488.954183 C635.464144,489.904183 631.934144,494.454183 629.824144,498.974183 L629.824144,498.974183 Z M651.564144,488.864183 C652.614144,491.724183 653.894144,494.594183 654.074144,497.684183 C653.854144,499.714183 653.104144,501.644183 652.494144,503.584183 C653.274144,504.194183 654.054144,504.804183 654.864144,505.424183 C655.064144,501.234183 655.394144,497.024183 655.114144,492.834183 C654.784144,490.914183 653.014144,489.874183 651.564144,488.864183 L651.564144,488.864183 Z M623.804144,497.354183 C623.034144,504.494183 622.154144,512.074183 624.604144,518.984183 C624.994144,514.234183 625.174144,509.444183 626.484144,504.834183 C627.454144,501.994183 625.064144,499.634183 623.804144,497.354183 Z" id="Shape"></path>
            <path d="M708.229603,486.091294 C714.839603,481.741294 725.319603,481.551294 730.449603,488.311294 C733.559603,492.261294 735.999603,497.181294 735.729603,502.331294 C735.549603,505.611294 732.929603,508.281294 729.829603,509.081294 C720.449603,511.591294 710.299603,507.731294 701.169603,511.651294 C704.109603,515.721294 706.569603,521.901294 712.409603,522.101294 C717.239603,522.801294 721.299603,519.771294 725.619603,518.251294 C727.769603,517.271294 729.369603,519.591294 731.049603,520.561294 C728.589603,522.841294 726.179603,525.171294 723.669603,527.401294 L721.409603,527.401294 C718.369603,525.761294 715.199603,523.291294 711.529603,524.101294 C709.399603,524.791294 707.639603,526.241294 705.769603,527.401294 L703.619603,527.401294 C700.199603,522.781294 695.869603,518.281294 695.169603,512.321294 C693.909603,501.991294 699.809603,491.771294 708.229603,486.091294 L708.229603,486.091294 Z M710.299603,486.621294 C715.319603,487.471294 720.409603,487.891294 725.509603,487.811294 C726.779603,490.421294 728.139603,492.991294 729.549603,495.541294 C729.619603,493.691294 729.709603,491.851294 729.799603,490.011294 C727.209603,488.361294 724.869603,486.171294 721.879603,485.291294 C717.979603,484.461294 714.069603,485.761294 710.299603,486.621294 L710.299603,486.621294 Z M705.399603,500.681294 C711.679603,500.991294 718.019603,501.371294 724.299603,500.731294 C725.749603,500.711294 726.589603,499.121294 726.139603,497.831294 C725.799603,492.851294 720.549603,488.121294 715.489603,490.111294 C711.059603,492.291294 706.689603,495.671294 705.399603,500.681294 Z" id="Shape"></path>
            <path d="M758.971752,486.002191 C763.411752,482.902191 769.161752,482.602191 774.371752,483.332191 C778.101752,483.842191 781.841752,485.782191 783.741752,489.142191 C784.971752,491.062191 783.721752,494.392191 781.191752,494.152191 C776.671752,493.342191 773.251752,489.002191 768.431752,489.352191 C762.771752,490.262191 758.241752,494.572191 755.251752,499.252191 C751.021752,506.322191 752.111752,517.662191 760.351752,521.312191 C765.511752,523.792191 770.491752,520.232191 775.041752,518.172191 C777.381752,516.792191 779.521752,519.032191 781.531752,519.992191 C779.241752,522.522191 776.961752,525.042191 774.521752,527.422191 L771.731752,527.422191 C769.451752,525.962191 767.171752,524.022191 764.331752,523.962191 C761.151752,523.652191 758.681752,525.942191 756.131752,527.422191 L753.741752,527.422191 C751.251752,524.002191 748.321752,520.732191 747.061752,516.622191 C745.281752,510.852191 745.871752,504.552191 747.851752,498.922191 C750.071752,493.592191 754.261752,489.252191 758.971752,486.002191 L758.971752,486.002191 Z M755.251752,492.192191 C752.331752,495.672191 748.851752,499.522191 748.941752,504.342191 C748.851752,508.762191 748.991752,513.192191 749.041752,517.612191 C749.521752,517.792191 750.461752,518.152191 750.941752,518.332191 C750.941752,512.092191 750.411752,505.692191 752.161752,499.622191 C754.061752,496.252191 757.011752,493.632191 759.601752,490.802191 C760.971752,489.532191 762.191752,487.652191 764.301752,487.722191 C767.921752,487.492191 771.611752,487.412191 775.201752,488.092191 C777.311752,489.202191 778.791752,491.152191 780.411752,492.862191 C781.271752,492.202191 782.121752,491.552191 783.001752,490.922191 C780.111752,488.402191 777.101752,485.452191 773.061752,485.152191 C766.301752,483.912191 760.081752,487.932191 755.251752,492.192191 Z" id="Shape"></path>
            <path d="M861.66,486.342222 C865.72,484.442222 870.17,482.502222 874.77,483.362222 C878.44,484.022222 881.22,486.692222 884.02,488.952222 C888.9,486.102222 893.97,482.692222 899.88,483.022222 C905.79,482.862222 911.65,487.362222 912.32,493.352222 C913.45,504.872222 911.85,516.632222 907.5,527.382222 L902.14,527.382222 C902.52,517.832222 906.98,508.922222 906.52,499.302222 C906.44,496.522222 906.37,493.242222 904.02,491.322222 C900,488.062222 893.58,488.952222 890.15,492.662222 C886.41,496.442222 885.89,502.022222 884.56,506.912222 C882.74,513.622222 882.54,520.622222 881.03,527.382222 L880.08,527.382222 C880.31,521.362222 880.35,515.332222 879.51,509.352222 C878.44,515.302222 878.01,521.412222 879.19,527.382222 L875.22,527.382222 C876.63,519.622222 876,511.692222 877.03,503.892222 C877.54,499.312222 877.76,494.102222 874.62,490.342222 C871.79,489.262222 868.38,489.502222 865.93,491.342222 C861.9,494.172222 860.17,499.012222 858.5,503.432222 C855.64,511.082222 856.46,519.382222 855.98,527.382222 L847,527.382222 C849.08,519.592222 850.25,511.602222 850.73,503.562222 C851.18,496.572222 852.64,489.422222 857.09,483.812222 C858.6,484.652222 860.13,485.502222 861.66,486.342222 L861.66,486.342222 Z M865.62,486.442222 C869.42,487.152222 873.24,487.722222 877.11,487.932222 C879.89,492.382222 882.23,497.142222 883.39,502.292222 C884.21,497.522222 886.13,492.962222 889.58,489.492222 C887.54,490.312222 885.5,491.132222 883.47,491.952222 C880.87,489.622222 878.58,486.732222 875.34,485.272222 C872.08,484.442222 868.76,485.592222 865.62,486.442222 L865.62,486.442222 Z M891.68,486.472222 C895.4,486.982222 899.17,487.282222 902.87,487.992222 C906.58,488.722222 908.57,492.772222 908.4,496.292222 C908.41,501.672222 908.56,507.072222 909.4,512.402222 C910.22,505.982222 911.12,499.382222 910.1,492.952222 C908.2,490.312222 905.9,487.892222 903.42,485.802222 C899.7,483.952222 895.48,485.832222 891.68,486.472222 L891.68,486.472222 Z M857.34,486.592222 C856.55,489.962222 855.82,493.342222 855.26,496.752222 C855.9,497.102222 856.55,497.452222 857.22,497.812222 C858.7,495.142222 860.37,492.572222 862.28,490.182222 C860.6,489.022222 858.95,487.822222 857.34,486.592222 L857.34,486.592222 Z M853.76,500.262222 C852.08,506.842222 852.05,513.712222 853.1,520.402222 C854.61,513.782222 854.61,506.962222 853.76,500.262222 Z" id="Shape"></path>
            <path d="M794.093673,508.688954 C793.103673,497.928954 800.053673,486.928954 810.543673,483.928954 C817.483673,482.248954 826.043673,482.418954 831.203673,488.078954 C834.913673,491.558954 834.523673,497.008954 834.663673,501.668954 C834.423673,506.208954 834.963673,511.258954 832.213673,515.188954 C829.083673,519.648954 824.893673,523.238954 820.703673,526.668954 L801.973673,526.668954 C797.503673,521.698954 793.463673,515.718954 794.093673,508.688954 L794.093673,508.688954 Z M800.583673,502.218954 C799.563673,506.618954 800.233673,511.188954 800.383673,515.658954 C801.593673,516.168954 802.803673,516.698954 804.033673,517.228954 C804.533673,518.468954 805.063673,519.708954 805.573673,520.958954 C809.643673,521.048954 813.903673,521.878954 817.863673,520.678954 C821.673673,518.108954 825.073673,514.758954 827.613673,510.938954 C829.053673,505.368954 828.113673,499.468954 827.873673,493.788954 C825.663673,492.308954 823.683673,490.438954 821.223673,489.388954 C817.983673,488.698954 814.453673,488.588954 811.293673,489.668954 C806.363673,492.338954 802.483673,496.958954 800.583673,502.218954 Z" id="Shape"></path>
            <path d="M77.32,0 L682.42,0 C681.84,8.16 678.73,15.86 678.17,24.02 C677.84,29.1 676.7,34.06 675.38,38.96 C673.75,45.07 674.08,51.48 672.64,57.62 C671.89,61.1 670.64,64.49 670.29,68.05 C670.23,70.56 671.35,72.91 672.09,75.26 C679.07,60.26 687.34,45.47 699.43,33.95 C711.32,21.47 726.38,12.19 742.61,6.49 C748.37,4.89 754.66,4.3 759.25,0 L1042.46,0 L1042.46,1.51 C1040.33,3.64 1038.07,5.66 1036.45,8.22 C1015.42,45.17 994.45,82.17 973.38,119.11 C971.09,123.13 969.17,127.38 966.42,131.12 C965.12,133.03 962.59,133.14 960.52,133.29 C904.31,133.27 848.09,133.24 791.87,133.3 C790.64,139.72 790.1,146.28 788.47,152.63 C786.29,161.05 786.34,169.85 784.07,178.26 C781.91,186.35 781.93,194.83 779.75,202.93 C777.69,210.77 777.74,218.99 775.65,226.83 C773.37,235.19 773.37,243.96 771.07,252.31 C769.6,257.55 769.4,263.03 769.74,268.43 C844.26,268.89 918.8,268.27 993.32,268.74 C968.99,312.91 943.65,356.51 918.89,400.44 C846.06,400.62 773.24,400.47 700.41,400.51 C686.96,399.43 673.39,395.78 661.95,388.39 C647.47,379.08 636.62,364.23 632.4,347.52 C631.27,341.92 630.16,336.31 629.31,330.67 C627.92,321.4 631.37,312.42 632,303.25 C632.62,293.98 636,285.17 636.63,275.9 C637.2,268.11 640.09,260.73 640.75,252.96 C641.15,248.39 641.9,243.85 643.12,239.42 C645.31,231.58 645.01,223.31 647.23,215.48 C649.56,207.12 649.28,198.31 651.71,189.98 C653.88,182.25 653.62,174.08 655.9,166.38 C657.6,160.74 657.9,154.84 658.67,149.04 C659.25,144.18 661.45,139.53 661.08,134.58 C658.68,132.67 655.42,132.8 652.53,132.64 C615.84,132.74 579.15,132.71 542.46,132.67 C537.71,132.82 532.73,131.91 528.16,133.54 C525.05,143.05 523.28,153.04 522.26,163 C521.35,170.42 518.66,177.51 518.24,185 C517.82,193.44 514.35,201.35 513.93,209.78 C513.41,218.11 510.06,225.94 509.67,234.28 C509.15,243.02 505.67,251.23 505.18,259.98 C504.69,268.09 501.48,275.74 501.02,283.86 C500.66,291.88 497.5,299.41 496.84,307.38 C496.37,312.6 495.52,317.78 494.15,322.84 C492.11,330.42 492.44,338.4 490.25,345.95 C487.65,354.83 488.19,364.27 485.43,373.13 C482.78,381.85 485.02,392.15 479.47,399.85 C475.62,401.15 471.44,400.44 467.45,400.57 C428.83,400.46 390.21,400.57 351.6,400.52 C351.76,395.67 352.46,390.84 353.77,386.16 C355.96,378.31 355.55,370 357.89,362.18 C360.1,354.67 359.72,346.7 361.84,339.16 C363.35,333.87 364.03,328.41 364.54,322.95 C365.14,316.44 367.53,310.26 368.25,303.76 C368.71,293.78 372.47,284.36 373.1,274.41 C373.77,266.76 376.84,259.53 377.18,251.83 C377.65,243.05 381.16,234.8 381.66,226.02 C382.11,217.89 385.37,210.24 385.85,202.11 C386.25,193.5 389.73,185.42 390.2,176.82 C390.69,168.71 393.87,161.09 394.47,153 C395,146.42 396.64,140 397.46,133.45 C388.84,132.27 380.13,132.75 371.46,132.7 C343.13,132.69 314.79,132.69 286.46,132.7 C278.98,132.73 271.48,132.34 264.04,133.23 C262.32,141.41 259.51,149.39 259.01,157.79 C258.65,165.83 255.31,173.36 254.85,181.4 C254.42,190.45 250.8,198.95 250.28,207.99 C249.83,215.8 246.77,223.16 246.18,230.95 C245.82,235.81 245.06,240.64 243.74,245.34 C241.55,252.92 242,260.95 239.83,268.53 C237.1,277.63 237.61,287.32 234.78,296.4 C232.9,303.23 233.26,310.43 231.44,317.27 C230.12,322.19 229.11,327.21 228.73,332.3 C228.16,340.36 225,347.97 224.49,356.04 C224.04,364.83 220.55,373.1 220.05,381.89 C219.73,388.28 217.8,394.41 215.73,400.42 C173.08,400.68 130.42,400.46 87.77,400.53 C87.79,394.96 88.33,389.39 89.89,384.03 C92.12,376.46 91.82,368.45 93.81,360.84 C95.04,356.08 95.91,351.24 96.36,346.35 C97.13,338.06 100.06,330.15 100.7,321.83 C101.32,313.42 104.41,305.43 105,297.02 C105.49,289.23 108.31,281.83 109.06,274.08 C109.55,269.24 110.31,264.42 111.53,259.71 C113.69,251.57 113.59,243.04 115.81,234.91 C118.02,226.83 117.87,218.34 120.11,210.26 C122.26,202.39 122.18,194.14 124.21,186.25 C125.42,181.51 126.2,176.68 126.72,171.82 C127.46,164.07 130.1,156.65 130.86,148.89 C131.3,144.02 132.8,139.3 133.03,134.41 C130.5,132.84 127.41,132.71 124.52,132.63 C93.84,132.76 63.15,132.66 32.46,132.69 C22.31,132.64 12.14,132.91 2,132.39 C4.22,129.26 6.3,126.04 8.22,122.72 C27.66,88.2 47.42,53.85 66.89,19.35 C70.72,13.09 74.12,6.59 77.32,0 Z" id="Shape"></path>
            <path d="M379,472.254146 C382.88,471.824146 386.81,471.924146 390.66,472.674146 C388.1,474.164146 385.52,475.624146 382.96,477.094146 C383.17,485.194146 383.73,493.394146 381.81,501.354146 C381.03,494.284146 380.92,487.124146 382.14,480.104146 C382.83,477.034146 380.46,474.664146 379,472.254146 Z" id="Shape"></path>
            <path d="M681.364083,471 C682.164083,477.68 682.204083,484.48 680.984083,491.12 C679.504083,484.47 679.744083,477.59 681.364083,471 Z" id="Shape"></path>
            <path d="M590,485.456793 C592.41,484.876793 594.82,483.666793 597.37,484.086793 C601.24,484.716793 605.05,485.736793 608.94,486.306793 C604.28,486.746793 599.66,487.556793 595.18,488.926793 C595.18,495.136793 595.1,501.376793 593.74,507.456793 C592.99,502.406793 593.37,497.296793 593.15,492.216793 C593.04,489.616793 591.35,487.526793 590,485.456793 Z" id="Shape"></path>
            <path d="M425.356842,488.99443 C427.466842,486.68443 430.156842,483.61443 433.556842,485.68443 C428.876842,487.50443 424.086842,489.47443 420.336842,492.91443 C415.386842,498.01443 414.046842,505.28443 412.636842,511.98443 C411.516842,504.16443 412.036842,496.28443 412.946842,488.47443 C414.256842,489.83443 415.306842,491.87443 417.246842,492.33443 C419.936842,491.19443 422.546842,489.86443 425.356842,488.99443 Z" id="Shape"></path>
            <path d="M454,486.563209 C458.69,484.683209 463.99,484.273209 468.61,486.593209 C463.75,487.113209 458.85,487.063209 454,486.563209 Z" id="Shape"></path>
            <path d="M509,486.295522 C512.8,484.665522 516.97,484.765522 520.96,485.545522 C521.03,486.115522 521.15,487.245522 521.22,487.815522 C517.14,487.345522 513.06,486.885522 509,486.295522 Z" id="Shape"></path>
            <path d="M557.238022,485.463735 C561.378022,484.253735 565.608022,485.613735 569.428022,487.223735 C569.148022,487.483735 568.578022,488.013735 568.288022,488.273735 C563.358022,487.663735 558.388022,487.643735 553.428022,487.703735 C552.058022,490.033735 550.638022,492.333735 549.028022,494.493735 C548.598022,489.613735 553.198022,486.773735 557.238022,485.463735 Z" id="Shape"></path>
            <path d="M710,486.596031 C713.77,485.736031 717.68,484.436031 721.58,485.266031 C724.57,486.146031 726.91,488.336031 729.5,489.986031 C729.41,491.826031 729.32,493.666031 729.25,495.516031 C727.84,492.966031 726.48,490.396031 725.21,487.786031 C720.11,487.866031 715.02,487.446031 710,486.596031 Z" id="Shape"></path>
            <path d="M755.339499,492.268244 C760.169499,488.008244 766.389499,483.988244 773.149499,485.228244 C777.189499,485.528244 780.199499,488.478244 783.089499,490.998244 C782.209499,491.628244 781.359499,492.278244 780.499499,492.938244 C778.879499,491.228244 777.399499,489.278244 775.289499,488.168244 C771.699499,487.488244 768.009499,487.568244 764.389499,487.798244 C762.279499,487.728244 761.059499,489.608244 759.689499,490.878244 C757.099499,493.708244 754.149499,496.328244 752.249499,499.698244 C750.499499,505.768244 751.029499,512.168244 751.029499,518.408244 C750.549499,518.228244 749.609499,517.868244 749.129499,517.688244 C749.079499,513.268244 748.939499,508.838244 749.029499,504.418244 C748.939499,499.598244 752.419499,495.748244 755.339499,492.268244 Z" id="Shape"></path>
            <path d="M866,486.457037 C869.14,485.607037 872.46,484.457037 875.72,485.287037 C878.96,486.747037 881.25,489.637037 883.85,491.967037 C885.88,491.147037 887.92,490.327037 889.96,489.507037 C886.51,492.977037 884.59,497.537037 883.77,502.307037 C882.61,497.157037 880.27,492.397037 877.49,487.947037 C873.62,487.737037 869.8,487.167037 866,486.457037 Z" id="Shape"></path>
            <path d="M892,486.46328 C895.8,485.82328 900.02,483.94328 903.74,485.79328 C906.22,487.88328 908.52,490.30328 910.42,492.94328 C911.44,499.37328 910.54,505.97328 909.72,512.39328 C908.88,507.06328 908.73,501.66328 908.72,496.28328 C908.89,492.76328 906.9,488.71328 903.19,487.98328 C899.49,487.27328 895.72,486.97328 892,486.46328 Z" id="Shape"></path>
            <path d="M499.2817,485 C501.0617,486.7 502.9417,488.31 504.9117,489.81 C502.6017,492.18 500.4717,494.73 498.0217,496.96 C497.8717,492.92 498.5217,488.94 499.2817,485 Z" id="Shape"></path>
            <path d="M637,485.908936 C641.47,484.528936 646.29,484.868936 650.79,485.938936 C646.21,486.518936 641.58,486.458936 637,485.908936 Z" id="Shape"></path>
            <path d="M857.08,486 C858.69,487.23 860.34,488.43 862.02,489.59 C860.11,491.98 858.44,494.55 856.96,497.22 C856.29,496.86 855.64,496.51 855,496.16 C855.56,492.75 856.29,489.37 857.08,486 Z" id="Shape"></path>
            <path d="M524.102425,493.55 C523.792425,491.66 524.232425,489.79 524.802425,488 C526.332425,495.97 525.342425,504.16 525.572425,512.23 C525.292425,512.24 524.722425,512.27 524.432425,512.28 C524.362425,506.03 524.852425,499.77 524.102425,493.55 Z" id="Shape"></path>
            <path d="M472.18,489 C473.13,490.44 474.64,491.76 474.66,493.62 C474.86,498.91 473.65,504.16 474.06,509.46 C472.72,507.36 471.61,504.49 468.85,504.04 C462.34,502.47 455.6,503.7 449,503.04 C456.37,501.02 464.43,503.92 471.53,500.99 C474.01,497.61 472.18,492.9 472.18,489 Z" id="Shape"></path>
            <path d="M652,489 C653.45,490.01 655.22,491.05 655.55,492.97 C655.83,497.16 655.5,501.37 655.3,505.56 C654.49,504.94 653.71,504.33 652.93,503.72 C653.54,501.78 654.29,499.85 654.51,497.82 C654.33,494.73 653.05,491.86 652,489 Z" id="Shape"></path>
            <path d="M623.807686,498 C625.067686,500.28 627.457686,502.64 626.487686,505.48 C625.177686,510.09 624.997686,514.88 624.607686,519.63 C622.157686,512.72 623.037686,505.14 623.807686,498 Z" id="Shape"></path>
            <path d="M675.556297,520.06 C674.696297,513.05 674.806297,505.95 676.076297,499 C677.216297,505.99 677.256297,513.15 675.556297,520.06 Z" id="Shape"></path>
            <path d="M854.370246,500 C855.220246,506.7 855.220246,513.52 853.710246,520.14 C852.660246,513.45 852.690246,506.58 854.370246,500 Z" id="Shape"></path>
            <path d="M377.90687,527.25 C376.18687,519.48 377.07687,511.57 379.20687,504 C379.56687,511.74 379.52687,519.5 379.19687,527.25 L377.90687,527.25 Z" id="Shape"></path>
            <path d="M494.521161,504 C495.581161,509.11 495.551161,514.44 494.331161,519.52 C493.871161,514.36 493.851161,509.15 494.521161,504 Z" id="Shape"></path>
            <path d="M562,506 C564.35,506.62 567.6,506.48 568.85,509 C570.11,511.82 569.47,515.02 569.52,518.02 C569.09,518.21 568.21,518.61 567.78,518.8 C567.67,516.22 567.82,513.6 567.23,511.08 C565.98,508.96 563.73,507.7 562,506 Z" id="Shape"></path>
            <path d="M442.084867,521.58 C441.924867,517.01 441.804867,512.31 443.554867,508 C443.884867,512.7 444.024867,517.43 444.984867,522.07 C444.014867,521.9 443.044867,521.74 442.084867,521.58 Z" id="Shape"></path>
            <path d="M880.026654,509 C880.866654,514.98 880.826654,521.01 880.596654,527.03 L879.706654,527.03 C878.526654,521.06 878.956654,514.95 880.026654,509 Z" id="Shape"></path>
            <path d="M464,521.05 C466.03,519.08 467.98,517.04 469.93,515 C469.88,517.59 469.79,520.18 469.65,522.77 C467.76,522.18 465.89,521.6 464,521.05 Z" id="Shape"></path>
            <path d="M594.05,522 C597.94,523.1 601.69,524.64 605.2,526.67 L594,526.67 C594.01,525.11 594.03,523.55 594.05,522 Z" id="Shape"></path>
            <path d="M445,527.475705 C447.03,526.095705 448.93,523.925705 451.6,524.005705 C455.06,523.875705 458,525.995705 460.96,527.475705 L445,527.475705 Z" id="Shape"></path>
            <path d="M548,527.429809 C550.83,525.929809 553.72,523.329809 557.16,524.159809 C559.26,524.879809 561.03,526.279809 562.92,527.429809 L548,527.429809 Z" id="Shape"></path>
            <path d="M630,527.463996 C632.56,526.003996 635.05,523.803996 638.2,524.013996 C641.29,523.993996 643.79,526.043996 646.37,527.463996 L630,527.463996 Z" id="Shape"></path>
            <path d="M705,527.458828 C706.87,526.298828 708.63,524.848828 710.76,524.158828 C714.43,523.348828 717.6,525.818828 720.64,527.458828 L705,527.458828 Z" id="Shape"></path>
            <path d="M756,527.48849 C758.55,526.00849 761.02,523.71849 764.2,524.02849 C767.04,524.08849 769.32,526.02849 771.6,527.48849 L756,527.48849 Z" id="Shape"></path>
        </g>
    </g>
</svg>