<?xml version="1.0" encoding="UTF-8"?>
<svg width="413px" height="103px" viewBox="0 0 413 103" version="1.1" xmlns="http://www.w3.org/2000/svg" xmlns:xlink="http://www.w3.org/1999/xlink">
    <!-- Generator: Sketch 47 (45396) - http://www.bohemiancoding.com/sketch -->
    <title>img_season</title>
    <desc>Created with Sketch.</desc>
    <defs></defs>
    <g id="Page-1" stroke="none" stroke-width="1" fill="none" fill-rule="evenodd">
        <g id="img_season" fill-rule="nonzero" fill="#FFFFFF">
            <g id="#ffffffff">
                <path d="M112.38,1.44 C128.71,0.38 145.12,1.22 161.49,0.94 C161.33,5.65 162.42,10.39 161.64,15.07 C160.69,13.04 160.08,10.86 159.02,8.88 C159.26,8.33 159.52,7.78 159.78,7.23 L161.3,10.59 C161.32,8.72 159.95,4.44 157.31,5.8 C152.63,2.32 146.63,2.28 141.07,2.22 C141.06,13.83 141.02,25.44 141.08,37.04 C141.35,40.06 140.83,43.57 143,46.02 C144.87,47.64 147.45,47.94 149.65,48.94 C141.35,49.11 133.03,49.15 124.73,48.92 C126.63,48.03 128.76,47.66 130.57,46.56 C132.62,45.09 132.99,42.39 132.95,40.05 C132.94,27.44 132.97,14.82 132.93,2.21 C128.41,2.46 123.59,2.21 119.43,4.29 C115.33,6.42 114.58,11.44 112.91,15.29 C112.66,11.86 111.84,7.7 113.9,4.77 C114.11,4.67 114.52,4.46 114.73,4.35 C115.22,3.64 116.2,2.23 116.69,1.52 C116.04,1.74 114.73,2.2 114.08,2.43 L113.7,2.83 C113.37,2.48 112.71,1.79 112.38,1.44 L112.38,1.44 Z M134.39,1.81 C133.79,14.9 134.42,28.04 134.04,41.14 C134.12,43.84 132.63,46.15 131.15,48.27 C132.32,47.46 133.49,46.64 134.66,45.83 C135.02,33.57 134.78,21.31 134.88,9.04 C134.83,6.63 135.09,4.16 134.39,1.81 Z" id="Shape"></path>
                <path d="M184.75,1.07 C197.51,0.8 210.29,1.02 223.06,0.95 C223.11,2.81 223.98,5.1 222.15,6.39 L221.13,5.65 C220.39,5.52 219.66,5.56 218.94,5.79 C214.28,1.14 207.2,2.52 201.28,2.28 C201.32,9.14 201.24,15.99 201.33,22.85 C205.05,22.62 209.2,22.38 211.9,19.4 C211.39,20.6 210.9,21.8 210.42,23.01 C212.41,22.07 213.78,20.48 214.48,18.41 L212.83,20.4 C212.54,20.01 212.25,19.63 211.97,19.23 C213.64,16.98 213.82,14.1 215.05,11.64 C215.55,19.62 215.11,27.64 214.73,35.61 C213.26,32.59 213.43,28.59 210.55,26.41 C208,24.19 204.42,24.43 201.29,23.94 C201.47,30.33 200.92,36.76 201.56,43.12 C202.16,47.06 206.55,47.76 209.62,48.88 C201.33,49.19 193.02,49.1 184.73,48.92 C187.37,47.43 192.31,47.61 192.07,43.48 C192.55,43.99 193.05,44.49 193.54,44.99 C192.64,46.13 191.75,47.28 190.87,48.43 C192.36,47.14 195.34,46.48 194.94,44.01 C194.53,30.71 194.86,17.39 194.83,4.1 C193.83,3.47 191.82,2.2 190.82,1.56 L193.51,4.78 C190.46,4.09 187.92,1.74 184.75,1.07 Z" id="Shape"></path>
                <path d="M247.07,1.1 C255.32,0.83 263.59,0.9 271.84,1.07 C269.03,2.3 265.04,2.69 264.02,6.14 C262.87,11.75 263.43,17.55 263.29,23.24 C271.61,23.23 279.92,23.24 288.24,23.24 C288.2,18.81 288.29,14.39 288.22,9.96 C288.15,7.63 287.76,4.96 285.78,3.45 C283.87,2.39 281.7,1.96 279.72,1.08 C288.08,0.88 296.46,0.84 304.82,1.09 C301.42,2.26 296.57,3.33 296.49,7.86 C296,17.57 296.45,27.32 296.27,37.05 C296.37,40.04 295.94,43.57 298.16,45.96 C299.99,47.66 302.64,47.9 304.83,48.94 C296.47,49.12 288.1,49.14 279.73,48.93 C282.59,47.61 286.82,47.31 287.71,43.65 C288.82,37.54 287.97,31.25 288.24,25.06 C279.92,25.04 271.6,25.07 263.27,25.05 C263.42,31.17 262.93,37.35 263.88,43.42 C264.68,47.16 268.89,47.71 271.84,48.94 C263.59,49.1 255.32,49.17 247.07,48.91 C250.46,47.68 255.15,46.52 255.12,42 C255.42,32.02 255.13,22.01 255.25,12.02 C255.18,9.43 255.51,6.39 253.67,4.3 C252.06,2.27 249.2,2.29 247.07,1.1 L247.07,1.1 Z M253.14,1.69 C254.74,3.47 256.32,5.52 256.15,8.07 C256.03,19.03 255.9,30 256.15,40.97 C256.45,43.79 254.9,46.23 253.26,48.36 C254.48,47.51 255.71,46.66 256.94,45.82 C256.61,31.87 256.68,17.92 256.96,3.97 C255.68,3.21 254.4,2.46 253.14,1.69 L253.14,1.69 Z M286.92,2.09 C287.89,3.96 289.23,5.81 289.12,8.04 C289.08,18.35 288.94,28.67 289.15,38.98 C289.51,42.43 288.52,45.83 286.14,48.38 C287.41,47.51 288.68,46.64 289.95,45.76 C289.7,31.86 289.65,17.95 289.96,4.05 C288.94,3.4 287.93,2.74 286.92,2.09 Z" id="Shape"></path>
                <path d="M193.18,13.01 C193.14,10.28 192.19,7.25 193.97,4.83 C194.12,17.83 194.08,30.84 193.98,43.83 C193.76,43.58 193.3,43.1 193.08,42.85 C193.23,32.93 193.34,22.96 193.18,13.01 Z" id="Shape"></path>
                <path d="M219.51,6.16 C219.9,6.33 220.68,6.67 221.08,6.84 C222.1,7.31 223.14,7.74 224.19,8.17 C224.02,9.97 223.85,11.77 223.68,13.58 C222.29,11.1 221.16,8.48 219.51,6.16 Z" id="Shape"></path>
                <path d="M170.13,18.92 C170.43,18.79 171.05,18.53 171.36,18.4 C172.74,20.25 174.17,22.07 175.63,23.86 C174.09,25.73 172.57,27.61 171.05,29.49 C169.58,27.64 168.1,25.78 166.62,23.94 C167.53,22.63 168.44,21.31 169.33,19.97 L171.13,22.67 L170.13,18.92 L170.13,18.92 Z M169.67,21.38 C168.25,21.98 168.15,22.67 169.35,23.44 C170.77,22.89 170.87,22.2 169.67,21.38 Z" id="Shape"></path>
                <path d="M238.21,21.83 C238.77,20.41 240.02,19.37 240.9,18.14 C242.43,20.04 243.96,21.95 245.46,23.88 C243.95,25.74 242.44,27.61 240.94,29.48 C239.46,27.67 237.97,25.87 236.54,24.02 L237.08,23.71 C238.23,23.53 239.39,23.37 240.55,23.18 C240.65,22.26 240.85,20.41 240.95,19.49 C240.02,20.25 239.27,21.26 238.21,21.83 Z" id="Shape"></path>
                <path d="M309.23,20.3 C309.7,19.61 310.19,18.94 310.71,18.29 C312.34,20.04 313.76,21.97 315.24,23.85 C313.75,25.75 312.24,27.64 310.71,29.5 C309.19,27.61 307.72,25.69 306.24,23.77 C307.23,22.62 308.25,21.47 309.23,20.3 L309.23,20.3 Z M309.08,21.44 C306.75,22.97 311.18,23.75 309.91,21.54 L309.08,21.44 Z" id="Shape"></path>
                <path d="M100.91,23.22 C100.83,21.39 100.71,19.56 100.74,17.73 C102.5,19.68 104.15,21.72 105.79,23.77 C104.31,25.7 102.81,27.61 101.29,29.5 C99.76,27.64 98.26,25.76 96.77,23.87 C98,22.25 99.21,20.61 100.63,19.14 C99.81,20.69 98.91,22.21 97.94,23.68 C98.68,23.56 100.17,23.33 100.91,23.22 Z" id="Shape"></path>
                <path d="M3.76,86.64 C4.98,89.43 5.8,92.37 6.65,95.29 C7.44,92.35 8.3,89.43 9.43,86.61 C10.94,90.78 11.5,95.2 12.36,99.52 C8.82,99.18 9.98,95.16 9.25,92.71 C8.46,95.13 7.67,97.55 6.73,99.92 C5.66,97.59 4.84,95.16 4.1,92.71 C3.39,95.11 4.31,99.19 0.87,99.42 C1.78,95.15 2.34,90.79 3.76,86.64 Z" id="Shape"></path>
                <path d="M15.23,87.47 C17.67,87.47 20.11,87.47 22.55,87.47 C22.54,87.93 22.53,88.85 22.52,89.31 C20.78,89.29 19.03,89.28 17.29,89.27 C17.28,89.94 17.27,91.28 17.26,91.96 C18.53,91.95 19.79,91.94 21.06,91.93 C21.06,92.39 21.08,93.31 21.08,93.77 C20.14,93.77 18.25,93.76 17.3,93.75 C17.3,94.6 17.29,96.3 17.28,97.15 C19.39,97.21 21.52,97.27 23.59,97.73 C21.33,99.87 18.02,98.82 15.24,99.07 C15.23,95.2 15.24,91.34 15.23,87.47 Z" id="Shape"></path>
                <path d="M33.21,92.56 C35.72,91.32 35.63,88 38.17,86.82 C38.27,87.34 38.45,88.38 38.55,88.9 C37.72,90.2 36.91,91.52 36.07,92.82 C37.3,94.98 38.31,97.27 39.12,99.62 C35.06,99.62 36.3,94.67 33.26,93.16 C33.09,95.12 33.04,97.09 33.01,99.05 C32.5,99.05 31.49,99.05 30.99,99.05 C30.96,97.09 30.91,95.13 30.74,93.18 C27.64,94.62 28.97,99.54 24.96,99.66 C25.61,97.34 26.54,95.09 27.9,93.09 C26.85,91.3 25.88,89.47 25.12,87.55 C28.7,86.39 27.99,91.59 30.77,92.58 C30.89,90.88 30.96,89.18 30.99,87.47 C31.5,87.47 32.51,87.48 33.01,87.48 C33.04,89.17 33.11,90.86 33.21,92.56 Z" id="Shape"></path>
                <path d="M45.78,87.47 C47.62,87.47 49.46,87.47 51.3,87.47 C51.83,90.92 50.02,95.12 52.51,97.99 C52.52,99.42 52.53,100.86 52.54,102.3 L50.68,102.29 C50.7,101.48 50.74,99.86 50.76,99.05 C48.17,99.06 45.59,99.06 43,99.05 C43.02,99.84 43.07,101.44 43.09,102.24 C42.63,102.27 41.71,102.33 41.25,102.36 C41.24,100.86 41.24,99.36 41.23,97.86 C44,95.08 44.93,91.17 45.78,87.47 L45.78,87.47 Z M44.27,97.29 C45.92,97.26 47.58,97.23 49.24,97.21 C49.24,94.38 49.25,91.54 49.15,88.7 C45.81,90.11 46.35,94.68 44.27,97.29 Z" id="Shape"></path>
                <path d="M54.65,86.93 C58.18,87.61 58.48,91.77 60.17,94.3 C61.73,91.86 61.46,87.83 64.71,86.81 C63.54,91.81 61.77,98.57 55.86,99.62 C55.8,99.2 55.68,98.35 55.62,97.92 C56.76,97.34 57.89,96.74 59.02,96.13 C57.52,93.08 55.9,90.09 54.65,86.93 Z" id="Shape"></path>
                <path d="M73.92,87.48 C74.63,87.48 75.35,87.47 76.07,87.47 C76.05,91.33 76.06,95.19 76.06,99.05 C75.53,99.05 74.47,99.05 73.95,99.05 C73.94,97.28 73.94,95.52 73.94,93.75 C72.47,93.76 71,93.76 69.53,93.77 C69.53,95.53 69.53,97.29 69.53,99.06 C69.01,99.06 67.99,99.07 67.48,99.07 C67.47,95.2 67.47,91.33 67.47,87.46 L69.54,87.48 C69.53,88.96 69.52,90.45 69.5,91.94 C70.99,91.94 72.48,91.95 73.98,91.96 C73.96,90.47 73.94,88.97 73.92,87.48 Z" id="Shape"></path>
                <path d="M104.56,87.66 C108.11,85.84 112.33,89.1 111.79,92.97 C112.34,96.79 108.83,100.43 104.93,99.16 C100.61,97.13 100.61,90.1 104.56,87.66 L104.56,87.66 Z M105.32,89.38 C103.12,91.02 103.49,94.43 104.53,96.66 C106.57,98.74 109.86,96.72 109.71,94.06 C110.43,91.48 108.27,87.66 105.32,89.38 Z" id="Shape"></path>
                <path d="M134.92,87.48 C135.63,87.48 136.35,87.47 137.06,87.47 C137.05,91.33 137.06,95.19 137.05,99.05 C136.53,99.05 135.47,99.05 134.95,99.05 C134.94,97.28 134.94,95.52 134.94,93.75 C133.47,93.76 132,93.76 130.53,93.77 C130.53,95.53 130.53,97.3 130.53,99.06 C130.02,99.07 128.99,99.07 128.47,99.08 C128.47,95.21 128.47,91.34 128.47,87.46 L130.54,87.48 C130.53,88.96 130.51,90.45 130.5,91.94 C131.99,91.94 133.48,91.95 134.98,91.96 C134.96,90.47 134.94,88.98 134.92,87.48 Z" id="Shape"></path>
                <path d="M170.95,87.12 C173.97,87.17 172.82,90.51 173.28,92.52 C176.3,91.46 175.69,86.74 179.46,87.2 C178.61,89.19 177.62,91.12 176.36,92.88 C177.74,94.95 178.67,97.28 179.56,99.59 C175.34,99.79 176.69,94.36 173.22,93.25 C173.08,95.18 173.04,97.11 173.02,99.05 C172.5,99.05 171.47,99.05 170.95,99.05 C170.94,95.07 170.94,91.09 170.95,87.12 Z" id="Shape"></path>
                <path d="M185.39,87.42 C189.95,85.8 193.33,91.13 191.83,95.14 C191.5,98.82 186.43,100.71 183.76,98.24 C180.83,95.27 181.35,89.16 185.39,87.42 L185.39,87.42 Z M185.37,89.54 C183.45,91.14 183.89,94.18 184.58,96.3 C186.8,99.37 190.77,96.05 189.97,93.02 C190.49,90.5 187.66,87.69 185.37,89.54 Z" id="Shape"></path>
                <path d="M195.24,87.47 C195.76,87.47 196.79,87.47 197.31,87.48 C197.29,88.97 197.28,90.45 197.26,91.95 C198.38,91.95 200.62,91.95 201.74,91.95 C201.72,90.46 201.7,88.97 201.69,87.48 C202.21,87.47 203.24,87.47 203.76,87.46 C203.77,91.32 203.76,95.19 203.76,99.05 C203.25,99.05 202.22,99.07 201.71,99.07 C201.71,97.3 201.71,95.53 201.71,93.76 C200.23,93.76 198.76,93.76 197.29,93.76 C197.29,95.53 197.29,97.3 197.29,99.07 C196.78,99.07 195.75,99.05 195.24,99.05 C195.23,95.19 195.23,91.33 195.24,87.47 Z" id="Shape"></path>
                <path d="M209.31,88.25 C211.25,86.59 213.93,87.36 216.11,87.97 C214.68,90.22 211.52,88.07 210.23,90.24 C208.7,92.31 208.92,95.58 210.92,97.29 C212.63,97.44 214.33,97.29 216.03,96.83 C215.21,99.96 211,99.91 208.92,98.14 C206.43,95.47 206.61,90.72 209.31,88.25 Z" id="Shape"></path>
                <path d="M233.99,87.47 C235.92,87.47 237.84,87.47 239.77,87.47 C239.76,91.33 239.76,95.19 239.76,99.05 C239.25,99.05 238.22,99.07 237.71,99.07 C237.71,95.79 237.71,92.51 237.7,89.22 C237.17,89.25 236.12,89.3 235.59,89.32 C234.94,93.3 234.63,99.33 229.36,99.62 C232.43,96.26 233.76,91.98 233.99,87.47 Z" id="Shape"></path>
                <path d="M242.46,87.48 C245.45,87.51 248.44,87.37 251.43,87.52 C251.75,87.94 252.37,88.77 252.69,89.19 C251.21,89.25 249.74,89.29 248.27,89.32 C248.3,92.57 248.29,95.82 248.29,99.07 C247.78,99.06 246.75,99.05 246.24,99.05 C246.23,95.79 246.23,92.54 246.24,89.28 C244.98,89.29 243.72,89.3 242.47,89.31 C242.47,88.85 242.46,87.94 242.46,87.48 Z" id="Shape"></path>
                <path d="M255.24,87.46 C255.75,87.47 256.78,87.47 257.3,87.48 C257.29,90.06 257.29,92.64 257.28,95.22 C259.44,92.36 261.52,89.43 264.05,86.87 C264.06,90.93 264.06,94.99 264.05,99.05 C263.53,99.05 262.47,99.05 261.94,99.05 C261.94,96.47 261.94,93.89 261.95,91.31 C259.81,94.19 257.78,97.17 255.35,99.83 C255.15,95.71 255.25,91.59 255.24,87.46 Z" id="Shape"></path>
                <path d="M267.7,87.48 C268.22,87.47 269.25,87.47 269.77,87.47 C269.76,88.96 269.76,90.45 269.75,91.94 C271.25,91.94 272.74,91.94 274.24,91.94 C274.23,90.45 274.23,88.95 274.24,87.46 C274.75,87.47 275.78,87.47 276.3,87.48 C276.29,91.34 276.29,95.21 276.29,99.07 C275.78,99.07 274.75,99.05 274.24,99.05 C274.23,97.29 274.23,95.52 274.24,93.76 C272.74,93.76 271.25,93.76 269.76,93.76 C269.76,95.52 269.76,97.29 269.76,99.05 C269.25,99.05 268.22,99.07 267.71,99.07 C267.7,95.21 267.71,91.34 267.7,87.48 Z" id="Shape"></path>
                <path d="M280.23,87.47 C282.59,87.47 284.94,87.47 287.3,87.47 C287.3,87.93 287.3,88.85 287.3,89.31 C285.63,89.29 283.95,89.28 282.28,89.27 C282.3,92.53 282.29,95.78 282.29,99.04 C281.77,99.05 280.75,99.06 280.24,99.07 C280.23,95.21 280.23,91.34 280.23,87.47 Z" id="Shape"></path>
                <path d="M293.41,87.62 C296.12,86.34 299.84,87.91 300.33,91 C301.43,94.63 299.45,99.83 294.98,99.32 C289.43,98.86 288.93,90.01 293.41,87.62 L293.41,87.62 Z M294.22,89.18 C291.73,91.11 291.63,96.53 294.96,97.57 C300.17,97.85 299.58,87.39 294.22,89.18 Z" id="Shape"></path>
                <path d="M319.11,86.67 C321.3,90.78 322.84,95.19 324.37,99.57 C322.77,99.23 321.76,98.11 320.96,96.78 C319.85,96.77 318.76,96.75 317.66,96.73 C316.85,98.09 315.68,99.05 314.17,99.5 C315.57,95.14 317.39,90.92 319.11,86.67 L319.11,86.67 Z M319.3,91.54 C317.63,92.25 317.57,96.61 320.03,95.18 C320.79,94.18 320.54,92.02 319.3,91.54 Z" id="Shape"></path>
                <path d="M328.77,87.81 C330.63,87.31 332.58,87.5 334.49,87.44 C334.55,91.31 334.52,95.18 334.53,99.06 C334.02,99.06 333.02,99.07 332.52,99.07 C332.47,97.26 332.42,95.46 332.33,93.66 C328.79,94.53 329.53,99.67 325.54,99.67 C326.4,97.43 327.49,95.29 328.81,93.29 C328.03,92.88 327.25,92.48 326.48,92.07 C326.79,90.46 326.99,88.47 328.77,87.81 L328.77,87.81 Z M328.39,91.37 C329.67,91.93 330.98,92.42 332.31,92.87 C332.39,91.69 332.48,90.51 332.56,89.33 C331.86,89.31 330.46,89.28 329.76,89.26 C329.3,89.96 328.84,90.66 328.39,91.37 Z" id="Shape"></path>
                <path d="M344.94,87.48 C347.53,87.96 351.4,86.04 352.69,89.21 C350.8,89.27 348.92,89.29 347.03,89.29 C347.07,92.54 347.06,95.8 347.05,99.05 C346.53,99.05 345.48,99.05 344.95,99.05 C344.94,95.19 344.94,91.33 344.94,87.48 Z" id="Shape"></path>
                <path d="M373.02,87.52 C373.55,87.49 374.6,87.44 375.13,87.42 C373.27,92.18 371.78,99.68 365.23,99.43 C366.19,97.95 367.77,97.13 369.07,96.02 C367.87,92.91 365.99,90.1 365.04,86.88 C368.39,87.81 368.77,91.78 370.48,94.3 C371.39,92.07 372.24,89.81 373.02,87.52 Z" id="Shape"></path>
                <path d="M406.99,86.64 C408.98,90.81 410.55,95.17 412.15,99.5 C410.56,99.12 409.5,98.01 408.58,96.75 C407.48,96.75 406.39,96.76 405.3,96.76 C404.47,98.08 403.39,99.15 401.83,99.52 C403.44,95.19 405.02,90.83 406.99,86.64 L406.99,86.64 Z M406.99,91.58 C405.87,92.22 405.28,94.24 406.28,95.25 C406.64,95.25 407.37,95.24 407.74,95.24 C408.7,94.22 408.12,92.2 406.99,91.58 Z" id="Shape"></path>
                <path d="M84.11,86.65 C86.28,90.77 87.85,95.18 89.37,99.57 C87.77,99.23 86.76,98.11 85.96,96.78 C84.86,96.77 83.76,96.75 82.66,96.74 C81.85,98.09 80.68,99.05 79.17,99.5 C80.58,95.13 82.39,90.9 84.11,86.65 L84.11,86.65 Z M84.31,91.53 C82.64,92.22 82.55,96.59 85.02,95.19 C85.8,94.19 85.54,92.04 84.31,91.53 Z" id="Shape"></path>
                <path d="M91.71,87.4 C93.96,87.57 96.5,87.14 98.45,88.54 C99.78,89.9 99.54,92.13 98.44,93.55 C97.18,94.73 95.34,94.66 93.77,95 C93.76,96.35 93.76,97.7 93.76,99.05 C93.25,99.05 92.22,99.07 91.71,99.07 C91.7,95.18 91.7,91.29 91.71,87.4 L91.71,87.4 Z M93.82,88.82 C93.79,90.34 93.77,91.86 93.78,93.38 C95.45,93.05 96.9,92.29 97.86,90.87 C96.6,90.01 95.23,89.36 93.82,88.82 Z" id="Shape"></path>
                <path d="M118.53,87.47 C120.38,87.47 122.22,87.47 124.07,87.48 C124.51,91.02 122.92,95.16 125.22,98.24 C125.26,99.59 125.3,100.94 125.33,102.29 C124.87,102.29 123.93,102.3 123.46,102.3 C123.47,101.22 123.48,100.14 123.5,99.06 C120.93,99.06 118.35,99.06 115.78,99.05 C115.76,100.17 115.74,101.28 115.71,102.4 C115.27,102.35 114.38,102.26 113.94,102.22 C113.94,100.77 113.94,99.33 113.95,97.89 C116.73,95.09 117.71,91.2 118.53,87.47 L118.53,87.47 Z M117.07,97.26 C118.69,97.24 120.32,97.24 121.95,97.24 C121.94,94.29 122.07,91.33 121.56,88.41 C118.88,90.59 118.93,94.49 117.07,97.26 Z" id="Shape"></path>
                <path d="M145.11,86.65 C147.28,90.78 148.85,95.18 150.37,99.57 C148.78,99.22 147.75,98.12 146.96,96.78 C145.85,96.77 144.75,96.75 143.65,96.74 C142.85,98.09 141.68,99.06 140.17,99.5 C141.58,95.13 143.39,90.9 145.11,86.65 L145.11,86.65 Z M145.3,91.53 C143.63,92.24 143.56,96.61 146.03,95.18 C146.79,94.18 146.54,92.02 145.3,91.53 Z" id="Shape"></path>
                <path d="M154.41,87.92 C156.37,87.29 158.46,87.52 160.49,87.44 C160.55,91.31 160.52,95.18 160.53,99.06 L158.51,99.06 C158.48,97.26 158.43,95.45 158.32,93.65 C154.77,94.52 155.55,99.75 151.53,99.63 C152.42,97.41 153.49,95.28 154.81,93.29 C154.03,92.88 153.26,92.48 152.48,92.07 C152.8,90.55 152.92,88.81 154.41,87.92 Z" id="Shape"></path>
                <path d="M223.12,86.65 C225.28,90.78 226.85,95.18 228.37,99.57 C226.78,99.22 225.76,98.12 224.96,96.78 C223.86,96.77 222.76,96.75 221.66,96.73 C220.85,98.08 219.68,99.05 218.17,99.5 C219.58,95.13 221.39,90.91 223.12,86.65 L223.12,86.65 Z M223.3,91.53 C221.63,92.24 221.56,96.61 224.03,95.18 C224.79,94.17 224.54,92.02 223.3,91.53 Z" id="Shape"></path>
                <path d="M303.49,87.4 C305.92,87.61 310.01,86.76 310.63,90.08 C310.38,90.7 309.89,91.94 309.65,92.56 C310.51,93.82 312.13,95.33 310.98,96.96 C309.72,99.82 305.93,98.77 303.48,99.14 C303.47,95.22 303.46,91.31 303.49,87.4 L303.49,87.4 Z M305.68,88.83 C305.63,89.64 305.53,91.27 305.47,92.09 C306.26,91.95 307.84,91.68 308.63,91.55 C308.69,89.78 307.11,89.21 305.68,88.83 L305.68,88.83 Z M305.6,93.23 C305.56,94.63 305.54,96.04 305.53,97.45 C306.74,97.19 307.94,96.92 309.15,96.63 C309.16,96.01 309.2,94.78 309.21,94.16 C308.01,93.81 306.81,93.51 305.6,93.23 Z" id="Shape"></path>
                <path d="M355.49,87.38 C358.25,87.51 363.14,86.98 363.16,90.99 C363.16,94.1 360.02,94.82 357.53,95.06 C357.52,96.39 357.52,97.73 357.53,99.06 C357.01,99.06 355.99,99.06 355.48,99.06 C355.47,95.17 355.46,91.28 355.49,87.38 L355.49,87.38 Z M357.62,88.9 C357.57,90.36 357.54,91.83 357.52,93.3 C358.77,92.71 361.3,93.05 360.89,91.01 C361.39,89.22 358.63,89.59 357.62,88.9 Z" id="Shape"></path>
                <path d="M377.7,87.47 C380.49,87.48 383.28,87.47 386.07,87.47 C386.05,91.33 386.06,95.19 386.05,99.05 C385.53,99.05 384.47,99.05 383.95,99.05 C383.94,95.79 383.93,92.52 383.95,89.26 C382.55,89.28 381.15,89.29 379.76,89.3 C379.77,92.55 379.76,95.8 379.76,99.05 C379.25,99.05 378.23,99.06 377.71,99.07 C377.7,95.2 377.71,91.34 377.7,87.47 Z" id="Shape"></path>
                <path d="M390.23,87.47 C392.99,87.47 395.76,87.48 398.53,87.47 C398.52,91.33 398.53,95.2 398.53,99.06 L396.47,99.06 C396.47,95.81 396.46,92.55 396.48,89.29 C395.08,89.29 393.68,89.28 392.28,89.27 C392.3,92.54 392.29,95.81 392.29,99.07 C391.78,99.07 390.75,99.05 390.24,99.05 C390.23,95.19 390.24,91.33 390.23,87.47 Z" id="Shape"></path>
            </g>
        </g>
    </g>
</svg>