<?xml version="1.0" encoding="UTF-8" ?>
<!DOCTYPE svg PUBLIC "-//W3C//DTD SVG 1.1//EN" "http://www.w3.org/Graphics/SVG/1.1/DTD/svg11.dtd">
<svg width="198pt" height="73pt" viewBox="0 0 198 73" version="1.1" xmlns="http://www.w3.org/2000/svg">
<g id="#fefdfcfe">
<path fill="#fefdfc" opacity="1.00" d=" M 64.52 0.00 L 68.60 0.00 C 74.97 1.13 81.30 4.40 84.16 10.49 C 82.83 10.57 81.50 10.65 80.17 10.73 C 76.55 5.24 69.60 2.49 63.20 4.06 C 55.25 5.44 49.37 13.93 51.10 21.85 C 52.42 29.65 60.25 35.28 68.03 34.63 C 74.45 34.46 79.89 29.75 82.05 23.87 C 75.09 23.80 68.14 23.86 61.19 23.84 C 61.19 23.02 61.17 21.39 61.16 20.58 C 69.60 20.59 78.03 20.52 86.46 20.62 C 85.48 27.21 81.59 33.52 75.41 36.36 C 69.00 38.93 61.23 38.43 55.39 34.65 C 47.51 29.69 44.81 18.46 49.25 10.36 C 52.07 4.44 58.39 1.34 64.52 0.00 Z" />
<path fill="#fefdfc" opacity="1.00" d=" M 0.00 0.86 C 7.96 1.02 16.76 -0.35 23.84 4.17 C 33.92 10.29 34.32 26.99 24.61 33.65 C 17.48 38.74 8.20 36.98 0.00 37.25 L 0.00 0.86 M 4.34 4.32 C 4.39 14.24 4.32 24.17 4.38 34.10 C 10.30 33.91 16.86 34.60 22.03 31.13 C 29.81 25.68 29.75 12.48 21.91 7.10 C 16.76 3.63 10.22 4.47 4.34 4.32 Z" />
<path fill="#fefdfc" opacity="1.00" d=" M 37.50 0.81 C 38.72 0.81 39.95 0.81 41.18 0.81 C 41.21 12.96 41.17 25.12 41.20 37.27 C 40.28 37.29 38.43 37.32 37.51 37.34 C 37.47 25.16 37.50 12.99 37.50 0.81 Z" />
<path fill="#fefdfc" opacity="1.00" d=" M 92.18 0.84 C 98.31 1.05 104.72 0.15 110.59 2.34 C 117.18 5.03 118.56 14.20 114.75 19.68 C 112.62 22.33 109.15 23.25 105.97 23.91 C 109.51 28.30 112.80 32.89 116.25 37.35 C 114.70 37.35 113.14 37.35 111.59 37.35 C 107.53 31.81 103.37 26.35 99.23 20.87 C 103.02 20.62 107.48 21.35 110.59 18.64 C 115.08 14.85 113.39 5.79 107.16 5.00 C 103.43 4.45 99.15 3.72 95.62 4.90 C 95.60 15.73 95.64 26.56 95.61 37.39 C 94.68 37.37 92.81 37.33 91.88 37.30 C 92.06 25.15 91.54 12.98 92.18 0.84 Z" />
<path fill="#fefdfc" opacity="1.00" d=" M 134.06 1.92 C 134.73 0.18 137.11 1.05 138.54 0.72 C 143.96 12.90 149.20 25.16 154.49 37.39 C 152.99 37.06 150.48 38.01 149.83 36.06 C 148.19 32.46 146.78 28.75 145.09 25.18 C 139.37 25.20 133.66 25.19 127.94 25.18 C 126.29 29.25 124.51 33.26 122.73 37.27 C 121.43 37.29 120.13 37.30 118.84 37.32 C 123.81 25.47 129.04 13.74 134.06 1.92 M 129.44 21.72 C 134.16 21.70 138.88 21.72 143.61 21.70 C 141.39 16.15 138.79 10.76 136.71 5.15 C 134.16 10.62 131.92 16.22 129.44 21.72 Z" />
<path fill="#fefdfc" opacity="1.00" d=" M 152.81 0.85 C 159.61 0.86 166.41 0.86 173.21 0.84 C 173.22 1.72 173.24 3.46 173.24 4.34 C 170.43 4.34 167.61 4.34 164.80 4.32 C 164.80 15.31 164.80 26.30 164.80 37.30 C 163.59 37.30 162.39 37.30 161.18 37.30 C 161.19 26.31 161.18 15.32 161.19 4.33 C 158.38 4.34 155.58 4.34 152.78 4.34 C 152.78 3.46 152.80 1.72 152.81 0.85 Z" />
<path fill="#fefdfc" opacity="1.00" d=" M 177.36 0.81 C 184.08 0.82 190.80 0.83 197.53 0.81 C 197.54 1.69 197.55 3.46 197.56 4.34 C 192.09 4.33 186.61 4.35 181.13 4.32 C 181.18 8.64 181.16 12.96 181.16 17.28 C 186.40 17.28 191.65 17.28 196.90 17.27 C 196.89 18.41 196.88 19.55 196.88 20.70 C 191.63 20.71 186.39 20.71 181.15 20.69 C 181.18 25.17 181.14 29.64 181.18 34.12 C 186.64 34.11 192.09 34.13 197.54 34.10 C 197.55 34.91 197.56 36.54 197.56 37.35 C 190.82 37.30 184.08 37.31 177.34 37.29 C 177.37 25.13 177.34 12.97 177.36 0.81 Z" />
<path fill="#fefdfc" opacity="1.00" d=" M 0.00 45.32 C 66.00 45.29 132.00 45.30 198.00 45.31 L 198.00 48.57 C 132.00 48.59 66.00 48.58 0.00 48.58 L 0.00 45.32 Z" />
<path fill="#fefdfc" opacity="1.00" d=" M 10.54 59.03 C 10.54 57.09 10.34 55.07 11.30 53.30 C 12.51 57.98 11.54 62.88 12.00 67.65 C 8.87 68.16 5.25 70.04 2.47 67.52 C -0.74 65.19 0.16 60.02 3.54 58.33 C 5.79 56.86 8.38 58.06 10.54 59.03 M 4.50 59.45 C 1.89 60.73 1.21 64.74 3.60 66.56 C 5.96 68.81 10.27 67.11 10.58 63.90 C 11.21 60.64 7.37 58.09 4.50 59.45 Z" />
<path fill="#fefdfc" opacity="1.00" d=" M 14.37 54.35 C 15.87 53.13 17.36 55.69 16.00 56.72 C 14.57 57.80 12.83 55.32 14.37 54.35 Z" />
<path fill="#fefdfc" opacity="1.00" d=" M 31.42 54.36 C 32.92 53.11 34.39 55.70 33.03 56.73 C 31.61 57.80 29.86 55.31 31.42 54.36 Z" />
<path fill="#fefdfc" opacity="1.00" d=" M 36.62 57.63 C 36.80 56.09 37.13 54.57 38.01 53.27 C 38.19 54.72 38.31 56.17 38.39 57.63 C 39.08 57.84 40.46 58.25 41.15 58.46 C 40.48 58.75 39.14 59.34 38.46 59.64 C 38.16 62.61 38.39 65.61 38.35 68.59 L 36.76 68.61 C 36.72 65.60 36.93 62.59 36.66 59.60 C 35.97 59.34 34.58 58.81 33.89 58.55 C 34.57 58.32 35.94 57.86 36.62 57.63 Z" />
<path fill="#fefdfc" opacity="1.00" d=" M 55.50 53.47 C 57.15 55.64 56.31 58.47 56.50 60.98 C 56.27 63.80 57.19 66.93 55.54 69.45 C 54.57 64.20 54.62 58.73 55.50 53.47 Z" />
<path fill="#fefdfc" opacity="1.00" d=" M 81.91 58.56 C 84.55 58.06 84.25 55.23 85.07 53.25 C 85.85 55.42 85.77 58.20 88.48 58.89 C 87.59 59.13 86.69 59.38 85.80 59.62 C 85.83 62.90 86.09 66.22 85.41 69.45 C 82.30 66.37 86.92 60.07 81.91 58.56 Z" />
<path fill="#fefdfc" opacity="1.00" d=" M 89.72 54.19 C 91.36 52.95 92.18 56.04 91.12 56.98 C 89.52 58.24 88.66 55.11 89.72 54.19 Z" />
<path fill="#fefdfc" opacity="1.00" d=" M 14.55 58.52 C 14.92 58.23 15.66 57.65 16.03 57.36 C 16.11 61.35 16.36 65.39 15.58 69.34 C 13.36 66.25 14.74 62.08 14.55 58.52 Z" />
<path fill="#fefdfc" opacity="1.00" d=" M 20.00 58.92 C 22.62 56.58 26.11 58.77 29.16 58.49 C 28.71 63.36 30.79 69.68 26.05 73.00 L 21.59 73.00 C 20.04 71.65 18.78 70.02 17.62 68.33 C 20.21 69.82 22.64 71.96 25.85 71.51 C 26.70 70.11 27.53 68.69 28.35 67.27 C 26.02 68.25 23.32 69.75 20.84 68.29 C 17.23 66.68 16.91 61.22 20.00 58.92 M 22.31 59.24 C 18.95 60.14 18.43 65.21 21.36 66.95 C 23.79 68.71 27.47 66.72 27.60 63.79 C 28.15 60.91 25.06 58.39 22.31 59.24 Z" />
<path fill="#fefdfc" opacity="1.00" d=" M 31.63 58.56 C 31.98 58.24 32.68 57.60 33.03 57.29 C 33.21 61.06 33.14 64.84 33.14 68.62 C 32.73 68.62 31.91 68.62 31.51 68.62 C 31.58 65.26 31.33 61.90 31.63 58.56 Z" />
<path fill="#fefdfc" opacity="1.00" d=" M 44.40 58.17 C 47.08 56.65 49.85 59.31 52.62 58.21 C 52.49 61.62 52.52 65.03 52.59 68.44 C 49.69 67.73 46.56 69.85 43.88 68.08 C 39.98 66.12 40.42 59.77 44.40 58.17 M 45.44 59.28 C 42.72 60.17 41.68 64.19 43.84 66.21 C 45.94 68.98 50.91 67.28 50.87 63.81 C 51.35 60.86 48.27 58.26 45.44 59.28 Z" />
<path fill="#fefdfc" opacity="1.00" d=" M 64.24 58.33 C 66.02 58.25 67.79 58.02 69.56 57.83 C 68.35 58.87 67.10 59.85 65.86 60.86 C 65.83 63.75 66.00 66.68 65.39 69.54 C 63.17 66.28 64.87 62.01 64.24 58.33 Z" />
<path fill="#fefdfc" opacity="1.00" d=" M 72.40 58.18 C 75.11 56.62 77.89 59.34 80.70 58.23 C 80.55 61.63 80.58 65.04 80.66 68.44 C 77.58 67.73 74.07 70.06 71.37 67.71 C 68.06 65.43 68.77 59.75 72.40 58.18 M 73.45 59.30 C 70.38 60.30 69.80 65.01 72.49 66.80 C 74.85 68.76 78.94 66.91 78.91 63.81 C 79.44 60.85 76.27 58.24 73.45 59.30 Z" />
<path fill="#fefdfc" opacity="1.00" d=" M 89.66 57.99 L 91.21 58.08 C 91.21 61.59 91.21 65.10 91.21 68.61 L 89.63 68.60 C 89.64 65.06 89.62 61.53 89.66 57.99 Z" />
<path fill="#fefdfc" opacity="1.00" d=" M 93.49 58.36 C 96.34 58.59 99.59 56.54 101.97 58.98 C 104.09 61.71 102.88 65.44 103.20 68.62 L 101.66 68.58 C 101.62 66.18 101.83 63.77 101.49 61.38 C 100.95 58.44 95.91 58.33 95.29 61.24 C 94.99 63.69 95.18 66.17 95.15 68.64 L 93.54 68.67 C 93.55 65.23 93.61 61.79 93.49 58.36 Z" />
<path fill="#fefdfc" opacity="1.00" d=" M 107.08 58.96 C 109.70 56.59 113.21 58.74 116.27 58.53 C 115.90 63.40 117.53 69.04 113.82 73.00 L 108.75 73.00 C 107.23 71.67 105.96 70.08 104.82 68.42 C 107.39 69.50 109.72 72.50 112.77 71.23 C 114.08 70.25 114.68 68.65 115.56 67.33 C 113.16 68.20 110.43 69.78 107.95 68.25 C 104.43 66.63 104.18 61.29 107.08 58.96 M 109.39 59.26 C 106.15 60.18 105.62 65.14 108.43 66.87 C 110.87 68.77 114.69 66.74 114.79 63.74 C 115.28 60.83 112.13 58.36 109.39 59.26 Z" />
<path fill="#fefdfc" opacity="1.00" d=" M 126.56 58.37 C 129.26 56.40 132.28 59.40 135.15 58.18 C 135.14 61.60 135.14 65.01 135.16 68.43 C 132.13 67.81 128.85 69.90 126.10 67.92 C 122.66 65.80 123.07 60.23 126.56 58.37 M 127.50 59.47 C 124.63 60.94 124.47 65.45 127.30 67.05 C 130.04 68.80 133.83 66.28 133.49 63.12 C 133.48 60.16 130.15 58.17 127.50 59.47 Z" />
<path fill="#fefdfc" opacity="1.00" d=" M 139.94 68.28 C 135.59 66.28 136.50 58.85 141.16 57.83 C 143.58 57.79 145.93 58.55 148.35 58.50 C 147.76 63.38 150.17 69.88 145.10 73.00 L 140.74 73.00 C 139.19 71.68 137.93 70.08 136.79 68.42 C 139.35 69.49 141.68 72.51 144.73 71.22 C 146.07 70.29 146.61 68.64 147.48 67.32 C 145.11 68.22 142.42 69.75 139.94 68.28 M 141.38 59.26 C 138.09 60.14 137.57 65.16 140.42 66.88 C 142.87 68.75 146.66 66.73 146.75 63.73 C 147.23 60.84 144.12 58.37 141.38 59.26 Z" />
<path fill="#fefdfc" opacity="1.00" d=" M 152.38 67.64 C 148.53 64.93 150.38 58.09 155.08 57.67 C 158.78 57.00 161.17 60.43 161.93 63.58 C 158.42 63.86 154.90 63.71 151.39 63.84 C 152.47 65.14 153.22 67.19 155.10 67.48 C 157.74 68.18 159.45 65.44 161.68 64.55 C 160.52 68.40 155.56 70.41 152.38 67.64 M 151.48 62.31 C 154.44 62.46 157.40 62.45 160.36 62.32 C 159.20 60.92 158.10 58.79 155.94 59.13 C 153.82 58.86 152.80 61.09 151.48 62.31 Z" />
<path fill="#fefdfc" opacity="1.00" d=" M 163.50 58.39 C 166.34 58.55 169.60 56.53 171.95 58.99 C 174.00 61.74 172.88 65.44 173.17 68.61 L 171.60 68.58 C 171.49 65.96 171.94 63.26 171.23 60.71 C 170.10 58.58 166.82 58.62 165.47 60.47 C 164.74 63.11 165.24 65.91 165.11 68.62 L 163.55 68.65 C 163.57 65.23 163.62 61.81 163.50 58.39 Z" />
<path fill="#fefdfc" opacity="1.00" d=" M 178.39 58.20 C 181.59 56.52 185.34 58.65 186.57 61.80 C 184.21 60.97 182.15 58.42 179.44 59.30 C 176.22 60.21 175.54 65.09 178.49 66.78 C 181.27 68.93 184.02 65.88 186.61 64.96 C 185.22 68.30 181.05 70.08 177.84 68.14 C 173.93 66.25 174.34 59.69 178.39 58.20 Z" />
<path fill="#fefdfc" opacity="1.00" d=" M 187.06 57.08 C 190.04 59.26 190.59 63.14 192.08 66.29 C 193.60 63.07 194.47 59.34 197.30 56.95 C 195.65 62.52 193.11 67.81 190.53 73.00 L 189.56 73.00 C 190.08 71.37 190.73 69.75 190.95 68.04 C 189.95 64.28 187.84 60.91 187.06 57.08 Z" />
</g>
</svg>
