<?xml version="1.0" encoding="UTF-8"?>
<svg width="85px" height="21px" viewBox="0 0 85 21" version="1.1" xmlns="http://www.w3.org/2000/svg" xmlns:xlink="http://www.w3.org/1999/xlink">
    <!-- Generator: Sketch 47 (45396) - http://www.bohemiancoding.com/sketch -->
    <title>logoskif</title>
    <desc>Created with Sketch.</desc>
    <defs></defs>
    <g id="Page-1" stroke="none" stroke-width="1" fill="none" fill-rule="evenodd">
        <g id="Desktop-Copy" transform="translate(-549.000000, -46.000000)" fill-rule="nonzero" fill="#FFFFFF">
            <g id="logoskif" transform="translate(549.000000, 46.000000)">
                <path d="M1,0 C2.66652893,0 4.33347107,0 6,0 C6,1.6526194 6,3.3052388 6,4.95785821 C4.33264463,4.93100314 2.66694215,4.99628161 1,5 C1,3.33333333 1,1.66666667 1,0 L1,0 Z M1.70247934,0.702363246 C1.70247934,1.90092547 1.70247934,3.09948769 1.70247934,4.29804991 C2.90123967,4.30631301 4.09876033,4.22987936 5.29752066,4.25549496 C5.29710744,3.05941167 5.29876033,1.86374153 5.29669421,0.668071393 C4.1,0.739134027 2.90041322,0.686663361 1.70247934,0.702363246 Z" id="Shape"></path>
                <path d="M17.0062554,0 C18.6708369,0 20.3354185,0 22,0 C22,1.65275597 22,3.30551194 22,4.95826791 C20.3482134,4.93141063 18.6980778,4.9962813 17.046704,5 C17.0755958,3.33236923 16.9744744,1.66721759 17.0062554,0 L17.0062554,0 Z M17.7079139,0.702421287 C17.6831495,1.90190893 17.736393,3.10015701 17.7520771,4.29923147 C18.9481984,4.29923147 20.1430815,4.2306421 21.3396156,4.25584662 C21.3334245,3.06214362 21.3544742,1.86802744 21.3255824,0.674737625 C20.1203808,0.728452194 18.9135282,0.692504752 17.7079139,0.702421287 Z" id="Shape"></path>
                <path d="M23,0 C28.6666667,0 34.3333333,0 40,0 C40,1.89830508 40,3.79661017 40,5.69491525 C36.677565,5.69491525 33.35513,5.69491525 30.0330969,5.69491525 C30.032695,6.38028249 30.0330969,7.06564972 30.0330969,7.75141243 C33.3555319,7.75141243 36.677565,7.75141243 40,7.75141243 C40,12.1677401 40,16.5836723 40,21 C34.3333333,21 28.6666667,21 23,21 C23,19.1673446 23,17.3350847 23,15.5028249 C26.2822459,15.5028249 29.5640898,15.5028249 32.8463357,15.5028249 C32.8459338,14.7775141 32.8459338,14.0525989 32.8463357,13.3276836 C29.5640898,13.3276836 26.2822459,13.3276836 23,13.3276836 C23,8.88525424 23,4.44242938 23,0 Z" id="Shape"></path>
                <path d="M41,0 C43.3680918,0 45.7357729,0 48.1038647,0 C48.1038647,1.77966102 48.1038647,3.55932203 48.1038647,5.33898305 C48.459058,5.33898305 48.8150725,5.33898305 49.1714976,5.33898305 C49.1702657,4.35028249 49.1723188,3.3619774 49.1714976,2.37367232 C49.755,2.37327684 50.3397343,2.37644068 50.924058,2.36378531 C50.9445894,1.5759887 50.9367874,0.78779661 50.9371981,0 C53.2913285,0 55.6454589,0 58,0 C58,2.50457627 58,5.00954802 58,7.51412429 C57.2058454,7.51293785 56.4121014,7.51531073 55.6183575,7.51412429 C55.6179469,8.17299435 55.6179469,8.83225989 55.6183575,9.49112994 C54.960942,9.49152542 54.3039372,9.49152542 53.647343,9.49152542 C53.6469324,10.2164407 53.6469324,10.9413559 53.647343,11.6666667 C54.3174879,11.6662712 54.9884541,11.6666667 55.6594203,11.6666667 C55.6581884,12.3350282 55.6536715,13.0033898 55.6721498,13.6713559 C56.4338647,13.689548 57.196401,13.6840113 57.9589372,13.6832203 C57.9589372,16.1221469 57.9589372,18.5610734 57.9589372,21 C55.6454589,21 53.3323913,21 51.0193237,21 C51.0201449,20.1429944 51.0176812,19.2863842 51.0193237,18.429774 C50.3619082,18.4293785 49.7049034,18.4293785 49.0483092,18.4293785 C49.0491304,17.4932768 49.0470773,16.5571751 49.0483092,15.6214689 C48.7600483,15.6210734 48.4726087,15.6214689 48.1859903,15.6214689 C48.1859903,17.4141808 48.1859903,19.2068927 48.1859903,21 C45.7903865,21 43.3951932,21 41,21 C41,14 41,7 41,0 Z" id="Shape"></path>
                <path d="M60.1094501,0.00186866689 C62.4064365,-0.00169060654 64.7030137,0.00107771724 67,0.000286767585 C67,7.00019118 67,14.0000956 67,21 C64.6678265,21 62.3356529,21 60.0034794,21 C60.0165723,19.4445975 59.9691105,17.8880086 60.0407124,16.3333971 C60.0697622,13.3938327 59.9965238,10.4530819 60.0865375,7.51430845 C60.101267,5.01016186 60.0521687,2.50482884 60.1094501,0.00186866689 Z" id="Shape"></path>
                <path d="M69.0032151,0 C74.3354767,0 79.6677384,0 85,0 C84.9995991,1.89830508 85,3.79661017 85,5.69491525 C82.0331777,5.69491525 79.0663555,5.69491525 76.0995332,5.69491525 C76.0991323,6.35418079 76.0991323,7.01305085 76.0995332,7.67231638 C79.0126319,7.67231638 81.9261316,7.67231638 84.8396312,7.67231638 C84.8392303,9.61016949 84.8396312,11.5480226 84.8396312,13.4858757 C81.8459472,13.4858757 78.8522632,13.4858757 75.8589801,13.4858757 C75.8589801,15.990452 75.8589801,18.4954237 75.8589801,21 C73.5885592,21 71.3185392,21 69.0485193,21 C68.9675331,19.3401695 69.0152428,17.6779661 69.0032151,16.0169492 C69.0032151,10.6779661 69.0032151,5.33898305 69.0032151,0 Z" id="Shape"></path>
                <path d="M10.000441,1 C10.3332353,1 10.6666177,1 11,1 C11,1.33352941 11,1.66647059 11,2 C10.6666177,2 10.3332353,2 10.000441,2 C9.99985301,1.66647059 9.99985301,1.33352941 10.000441,1 Z" id="Shape"></path>
                <path d="M13,2 C13.333125,2 13.66625,2 14,2 C13.999375,2.333125 13.999375,2.666875 14,3 C13.66625,3 13.333125,3 13,3 C13,2.666875 13,2.333125 13,2 Z" id="Shape"></path>
                <path d="M15,2 C15.333125,2 15.66625,2 16,2 C15.999375,2.333125 15.999375,2.666875 16,3 C15.66625,3 15.333125,3 15,3 C15,2.666875 15,2.333125 15,2 Z" id="Shape"></path>
                <path d="M6.00026137,4.00026137 C6.33311553,3.99967329 6.66655776,4.00026137 7,4.00026137 C7,4.33311553 7,4.66655776 7,5 C6.66655776,5 6.33370361,5 6.00026137,5 C5.99967329,4.66655776 6.00026137,4.33370361 6.00026137,4.00026137 Z" id="Shape"></path>
                <path d="M10.0002435,4.00024963 C10.3329079,3.99968797 10.6661601,4.00024963 10.9994123,4.00024963 C10.9994123,4.31646281 11,4.63267599 11,4.94945082 L11,5 C10.6667478,4.9775337 10.3334956,4.96068397 10.0008312,4.94551922 C10.0002435,4.63042936 9.99965571,4.31533949 10.0002435,4.00024963 Z" id="Shape"></path>
                <path d="M4.00026137,7.00044098 C4.33311553,6.99985301 4.66655776,6.99985301 5,7.00044098 C5,7.33323534 5,7.66661767 5,8 C4.66655776,8 4.33370361,8 4.00026137,8 C3.99967329,7.66661767 4.00026137,7.33382331 4.00026137,7.00044098 Z" id="Shape"></path>
                <path d="M9.00044098,7.00044098 C9.33323534,6.99985301 9.66661767,6.99985301 10,7.00044098 C10,7.33323534 10,7.66661767 10,8 C9.66661767,8 9.33323534,8 9.00044098,8 C8.99985301,7.66661767 8.99985301,7.33382331 9.00044098,7.00044098 Z" id="Shape"></path>
                <path d="M10.000441,7.00044098 C10.3332353,6.99985301 10.6666177,6.99985301 11,7.00044098 C11,7.33323534 11,7.66661767 11,8 C10.6666177,8 10.3332353,8 10.000441,8 C9.99985301,7.66661767 9.99985301,7.33382331 10.000441,7.00044098 Z" id="Shape"></path>
                <path d="M16.0002884,7 C16.3332692,7 16.6666346,7 17,7 C16.9996155,7.33294118 16.9996155,7.66647059 17,8 C16.6666346,7.99941176 16.3332692,8 16.0002884,8 C15.9999039,7.66647059 15.9999039,7.33352941 16.0002884,7 Z" id="Shape"></path>
                <path d="M12,8 C12.3332,8 12.6664,8 13,8 C12.9996,8.3332 12.9996,8.6664 13,9 C12.6664,9 12.3332,9 12,9 C12,8.6664 12,8.3332 12,8 Z" id="Shape"></path>
                <path d="M21.000441,8.00046853 C21.3326474,7.99984382 21.6660297,7.99984382 22,8.00046853 C21.999412,8.33343745 21.999412,8.66640637 22,9 C21.6660297,9 21.3332353,9 21.000441,9 C20.999853,8.66640637 20.999853,8.33343745 21.000441,8.00046853 Z" id="Shape"></path>
                <path d="M19,9 C19.333125,9 19.66625,9 20,9 C20,9.25 20,9.75 20,10 C19.66625,9.99909091 19.333125,9.99909091 19,10 C19,9.75 19,9.25 19,9 Z" id="Shape"></path>
                <path d="M5,9 C5.333125,9 5.66625,9 6,9 C6,9.333125 6,9.66625 6,10 C5.66625,9.999375 5.333125,9.999375 5,10 C5,9.66625 5,9.333125 5,9 Z" id="Shape"></path>
                <path d="M6,9 C6.333125,9 6.66625,9 7,9 C7,9.333125 7,9.66625 7,10 C6.66625,9.999375 6.333125,9.999375 6,10 C6,9.66625 6,9.333125 6,9 Z" id="Shape"></path>
                <path d="M1,9.00029991 C1.33294118,8.99990003 1.66647059,8.99990003 2,9.00029991 C2,9.33339998 2,9.66650005 2,10 C1.66647059,10 1.33352941,10 1,10 C1,9.66650005 1,9.33339998 1,9.00029991 Z" id="Shape"></path>
                <path d="M8,9.00029991 C8.33294118,8.99990003 8.66647059,8.99990003 9,9.00029991 C8.99941176,9.33339998 9,9.66650005 9,10 C8.66647059,10 8.33352941,10 8,10 C8,9.66650005 8,9.33339998 8,9.00029991 Z" id="Shape"></path>
                <path d="M18,9 C18.3325,9 18.66625,9 19,9 C18.999375,9.3332 18.999375,9.6664 19,10 C18.66625,9.9996 18.3325,9.9996 18,10 C18,9.6664 18,9.3332 18,9 Z" id="Shape"></path>
                <path d="M0,10 C0.3332,10 0.6664,10 1,10 C1,10.3329412 1,10.6664706 1,11 C0.6668,10.9994118 0.3332,11 0,11 C0,10.6664706 0,10.3329412 0,10 Z" id="Shape"></path>
                <path d="M17.0004685,12 C17.3334375,12 17.6664064,12 18,12 C17.9993753,12.333125 17.9993753,12.66625 18,13 C17.6664064,12.999375 17.3334375,12.999375 17.0004685,13 C16.9998438,12.66625 16.9998438,12.333125 17.0004685,12 Z" id="Shape"></path>
                <path d="M20.000441,12.0004685 C20.3326474,11.9998438 20.6660297,11.9998438 21,12.0004685 C20.999412,12.3334375 20.999412,12.6664064 21,13 C20.6660297,12.9993753 20.3332353,13 20.000441,13 C19.999853,12.6664064 19.999853,12.3334375 20.000441,12.0004685 Z" id="Shape"></path>
                <path d="M16.0004685,12 C16.3334375,12 16.6664064,12 17,12 C16.9993753,12.333125 16.9993753,12.66625 17,13 C16.6664064,12.999375 16.3334375,12.999375 16.0004685,13 C15.9998438,12.66625 15.9998438,12.333125 16.0004685,12 Z" id="Shape"></path>
                <path d="M5.00093662,13.0002614 C5.3331252,13.0002614 5.6665626,12.9996733 6,13.0002614 C6,13.3331155 6,13.6665578 6,14 C5.6665626,13.9994119 5.3331252,13.9994119 5.00093662,14 C4.99968779,13.6659697 4.99968779,13.3331155 5.00093662,13.0002614 Z" id="Shape"></path>
                <path d="M21.000441,13.000441 C21.3326474,12.999853 21.6660297,12.999853 22,13.000441 C21.999412,13.3332353 21.999412,13.6666177 22,14 C21.6660297,13.999412 21.3332353,14 21.000441,14 C20.999853,13.6660297 20.999853,13.3332353 21.000441,13.000441 Z" id="Shape"></path>
                <path d="M13.0004685,14.0002614 C13.3334375,14.0002614 13.6664064,13.9996733 14,14.0002614 C13.9993753,14.3331155 14,14.6665578 14,15 C13.6664064,14.9994119 13.3334375,14.9994119 13.0004685,15 C12.9998438,14.6659697 12.9998438,14.3331155 13.0004685,14.0002614 Z" id="Shape"></path>
                <path d="M5,15.0004685 C5.3325,14.9998438 5.66625,14.9998438 6,15.0004685 C6,15.3334375 6,15.6664064 6,16 C5.66625,15.9993753 5.3325,15.9993753 5,16 C5,15.6664064 5,15.3334375 5,15.0004685 Z" id="Shape"></path>
                <path d="M21.000441,15.0004685 C21.3326474,14.9998438 21.6660297,14.9998438 22,15.0004685 C21.999412,15.3334375 21.999412,15.6664064 22,16 C21.6660297,15.9993753 21.3332353,16 21.000441,16 C20.999853,15.6664064 20.999853,15.3334375 21.000441,15.0004685 Z" id="Shape"></path>
                <path d="M12.0005858,16.0320823 C12.1698887,16.0223971 12.3468073,16.0223971 12.5178676,16.0145278 C12.6719391,16.0102906 12.8242531,16.0024213 12.980082,16 C12.9876977,16.3329298 12.9941418,16.6658596 13,17 C12.6660808,17 12.3327475,17 12,17 C12,16.6767554 12,16.3541162 12.0005858,16.0320823 Z" id="Shape"></path>
                <path d="M1,16 C2.66652893,16 4.33347107,16 6,16 C6,17.6506229 6,19.3008329 6,20.9514559 C4.33347107,20.9964691 2.66694215,21.0059673 1,20.9968821 C1,19.3313924 1,17.6654897 1,16 L1,16 Z M1.70247934,16.7020413 C1.70247934,17.8996411 1.70247934,19.097241 1.70247934,20.2948408 C2.90082645,20.2820389 4.1,20.3270521 5.29752066,20.2622165 C5.29752066,19.0753538 5.29752066,17.888904 5.29752066,16.7020413 C4.09917355,16.7020413 2.90082645,16.7016283 1.70247934,16.7020413 Z" id="Shape"></path>
                <path d="M16.0002884,16 C16.3332692,16 16.6666346,16 17,16 C16.9996155,16.333125 16.9996155,16.66625 17,17 C16.6666346,16.999375 16.3332692,16.999375 16.0002884,17 C15.9999039,16.66625 15.9999039,16.333125 16.0002884,16 Z" id="Shape"></path>
                <path d="M7,17.0004685 C7.33294118,16.9998438 7.66647059,16.9998438 8,17.0004685 C8,17.3334375 8,17.6664064 8,18 C7.66647059,17.9993753 7.33294118,18 7,18 C7,17.6664064 7,17.3334375 7,17.0004685 Z" id="Shape"></path>
                <path d="M10,18.0004685 C10.333125,17.9998438 10.66625,17.9998438 11,18.0004685 C10.999375,18.3334375 10.999375,18.6664064 11,19 C10.66625,18.9993753 10.333125,18.9993753 10,19 C10,18.6664064 10,18.3334375 10,18.0004685 Z" id="Shape"></path>
                <path d="M8,18.0004685 C8.33294118,17.9998438 8.66647059,17.9998438 9,18.0004685 C9,18.3334375 9,18.6664064 9,19 C8.66647059,18.9993753 8.33294118,18.9993753 8,19 C8,18.6664064 8,18.3334375 8,18.0004685 Z" id="Shape"></path>
                <path d="M7,19.0004685 C7.33294118,18.9998438 7.66647059,18.9998438 8,19.0004685 C8,19.3334375 8,19.6664064 8,20 C7.66647059,19.9993753 7.33294118,19.9993753 7,20 C7,19.6664064 7,19.3334375 7,19.0004685 Z" id="Shape"></path>
                <path d="M16.0002999,20 C16.3334,20 16.6665,20 17,20 C16.9996001,20.3325 16.9996001,20.66625 17,21 C16.6665,20.999375 16.3334,20.999375 16.0002999,21 C15.9999,20.66625 15.9999,20.3325 16.0002999,20 Z" id="Shape"></path>
                <path d="M7,20.0007212 C7.33294118,19.9994721 7.66647059,20.0000966 8,20.0007212 C8,20.3329814 8,20.6664907 8,21 C7.66647059,20.9993755 7.33294118,20.9993755 7,21 C7,20.6664907 7,20.3336059 7,20.0007212 Z" id="Shape"></path>
                <path d="M12,20 C12.3332,20 12.6664,20 13,20 C12.9996,20.3325 12.9996,20.66625 13,21 C12.6664,20.999375 12.3332,20.999375 12,21 C12,20.66625 12,20.3325 12,20 Z" id="Shape"></path>
                <path d="M7.04361233,0.00165817882 C8.02202643,0.0033128938 9.00088106,-0.00785643235 9.97929515,0.0120001475 C9.98678414,0.228354132 9.9938326,0.445121795 10,0.661475779 C9.75991189,0.662716815 9.51982379,0.663544173 9.28017621,0.664785209 C9.26740088,0.907200954 9.25947137,1.1496167 9.25594714,1.39244612 C9.50220264,1.39989234 9.74889868,1.40609752 9.99559471,1.41147535 C9.99515419,1.64437648 9.99559471,1.87727761 9.99559471,2.11059243 C9.74581498,2.11059243 9.49603524,2.11100611 9.24669604,2.11141978 C9.24669604,2.46966558 9.24669604,2.82749769 9.24669604,3.18574349 C9.49603524,3.18615717 9.74581498,3.18657085 9.99559471,3.18698453 C9.99603524,4.12479424 9.99559471,5.06260396 9.99559471,6 C9.49603524,5.99917264 8.99735683,5.99875896 8.49823789,5.99958632 C8.49779736,5.76503047 8.49735683,5.5308883 8.49735683,5.29674613 C8.74713656,5.29633245 8.99647577,5.29591877 9.24669604,5.2955051 C9.24669604,5.06136292 9.24669604,4.82722075 9.24669604,4.59307858 C8.9969163,4.59307858 8.74757709,4.59266491 8.49823789,4.59307858 C8.49779736,4.82763443 8.49779736,5.0617766 8.49735683,5.29674613 C8.24801762,5.29633245 7.99867841,5.29633245 7.74933921,5.29633245 C7.74845815,4.93767298 7.74889868,4.57984086 7.74845815,4.22159507 C7.49867841,4.22076771 7.24933921,4.22035403 7,4.22035403 C7,3.87534596 7,3.53116524 7,3.18657085 C7.24889868,3.18615717 7.49823789,3.18657085 7.74757709,3.18698453 C7.74669604,3.30984711 7.74977974,3.43519177 7.75022026,3.55888172 C7.99911894,3.55888172 8.24845815,3.55888172 8.49779736,3.55888172 C8.49823789,2.5937692 8.49779736,1.62824301 8.49779736,0.663130494 C8.24801762,0.663130494 7.99867841,0.663130494 7.74933921,0.663130494 C7.74889868,0.911337742 7.74845815,1.15954499 7.74845815,1.40775224 C7.51321586,1.40775224 7.2784141,1.40775224 7.04361233,1.40775224 C7.04493392,0.939054218 7.04449339,0.470356198 7.04361233,0.00165817882 Z" id="Shape"></path>
                <path d="M12.0002436,0 C12.666437,0.001764187 13.3332185,0.00117612467 14,0 C13.998236,0.666862687 13.998236,1.33313731 14,2 C13.6666093,2 13.3343945,2 13.0021797,1.99941194 C12.9974758,1.8235813 12.9998278,1.64892679 12.9968878,1.47368421 C12.8422463,1.47133196 12.6870167,1.46956777 12.5323752,1.46721552 C12.5300232,1.31255513 12.5282592,1.15789474 12.5264953,1.00323434 C12.3483341,1.00088209 12.1772288,1.00029403 12.0008315,0.998529844 C12.0002436,0.665686563 11.9996556,0.332843281 12.0002436,0 Z" id="Shape"></path>
                <path d="M13.680198,0 C14.120132,0.00117600941 14.560066,0.000784006272 15,0 C14.9996001,0.222265778 15,0.444139553 15,0.666405331 C14.7728341,0.666405331 14.546868,0.666797334 14.3205019,0.667189338 C14.319702,1.11172089 14.320102,1.55586045 14.320102,2 C13.879768,1.99882399 13.440234,1.99921599 13.0003,2 C12.9999,1.77773422 12.9999,1.55586045 13.0003,1.33359467 C13.226666,1.33320267 13.453032,1.33281066 13.679798,1.33281066 C13.680198,0.888279106 13.680198,0.444139553 13.680198,0 Z" id="Shape"></path>
                <path d="M11.5234489,1 C11.7607357,1 11.998918,1.00044111 12.2366526,1.00044111 C12.2379957,1.1177768 12.2388912,1.23467137 12.240682,1.35200706 C12.4931911,1.35244817 12.7465955,1.35288928 13,1.3537715 C12.9995523,1.60255845 12.9995523,1.8517865 12.9995523,2.10101456 C12.8804611,2.10233789 12.7622654,2.10366123 12.6440697,2.10542567 C12.6418311,2.21967358 12.640488,2.33392148 12.6391449,2.4486105 C12.5075178,2.45434495 12.3830541,2.46184385 12.2532179,2.46978386 C12.2393389,2.97970887 12.237548,3.48963388 12.237548,4 C12.0011566,3.99911778 11.7652128,3.99911778 11.5288214,3.99867667 C11.5194195,3.87119541 11.5176286,3.74591972 11.5086744,3.61887958 C11.259747,3.61049846 11.0108197,3.60432289 10.76234,3.59858844 C10.7614446,3.3498015 10.7609969,3.10145567 10.7605492,2.85310984 C10.5071447,2.85266873 10.2537403,2.85222761 10.0003358,2.85222761 C9.99988807,2.60211734 9.99988807,2.35288928 10.0003358,2.10322011 C10.5075924,2.102779 11.0148491,2.102779 11.5221057,2.10233789 C11.5225534,1.73489193 11.5225534,1.36744596 11.5234489,1 Z" id="Shape"></path>
                <path d="M6.01557632,2.02814424 C6.34330218,2.01759015 6.67165109,2.00820874 7,2 C6.99813084,2.66666667 6.99813084,3.33333333 7,4 C6.66666667,4 6.33333333,4 6,4 C6.00436137,3.34271475 6,2.68542949 6.01557632,2.02814424 Z" id="Shape"></path>
                <path d="M2,2 C2.66679245,2 3.33320755,2 4,2 C4,2.6668 4,3.3332 4,4 C3.33320755,4 2.66641509,4 2,4 C2,3.3332 2,2.6668 2,2 Z" id="Shape"></path>
                <path d="M18,2 C18.6665385,2 19.3330769,2 20,2 C19.9996154,2.6668 19.9996154,3.3332 20,4 C19.3330769,4 18.6665385,4 18,4 C18,3.3332 18,2.6668 18,2 Z" id="Shape"></path>
                <path d="M14.9499779,4 C15.2995651,4 15.6495725,4 16,4 C16,4.66666667 15.9995798,5.33333333 16,6 C14.3335784,6 12.6667367,6 11.0003151,6 C10.999895,5.78823529 10.999895,5.57647059 11.0003151,5.36470588 L11.0003151,5.32941176 C11.3503225,5.33176471 11.7003298,5.33294118 12.0503372,5.33372549 C12.049917,5.11137255 12.049917,4.88980392 12.0503372,4.66784314 C11.9221832,4.66627451 11.7990714,4.66666667 11.672178,4.6654902 C11.672178,4.56117647 11.672178,4.4572549 11.672178,4.35333333 C11.9099981,4.35294118 12.1478182,4.35294118 12.3860585,4.35294118 C12.3864787,4.67960784 12.3864787,5.00627451 12.3868989,5.33333333 C12.7646379,5.33333333 13.1423769,5.33333333 13.5205361,5.33333333 C13.5209563,5.00627451 13.5209563,4.67960784 13.5213765,4.35294118 C13.7449106,4.35294118 13.9688649,4.35294118 14.1928192,4.35294118 C14.1932394,4.67960784 14.1932394,5.00627451 14.1936595,5.33333333 C14.4453455,5.33372549 14.6974516,5.33333333 14.9491376,5.33333333 C14.9495578,4.88862745 14.9495578,4.44431373 14.9499779,4 Z" id="Shape"></path>
                <path d="M2.34302326,6.01444861 C2.77635659,6.00195251 3.21007752,6.00078101 3.64379845,6 C3.64263566,6.44243986 3.64263566,6.88487973 3.64379845,7.32731959 C3.20891473,7.3292721 2.77403101,7.32653858 2.33953488,7.33747266 C2.33217054,7.56865042 2.32713178,7.79982818 2.32325581,8.03139644 C2.98294574,8.03139644 3.64263566,8.03217744 4.30232558,8.03178694 C4.30232558,8.35707591 4.30193798,8.68236489 4.30232558,9.00804436 C3.64341085,9.00765386 2.98449612,9.00843486 2.3255814,9.00804436 C2.3255814,9.11191815 2.3255814,9.21618244 2.3255814,9.32005623 C2.76395349,9.32044674 3.20232558,9.32005623 3.64031008,9.32083724 C3.64341085,9.65471728 3.64689922,9.98937832 3.65620155,10.3236489 C4.10387597,10.3353639 4.55193798,10.3365355 5,10.3365355 C5,10.5575601 5,10.7785848 5,11 C4.54806202,10.9988285 4.09612403,10.9988285 3.64418605,11 C3.64379845,10.7785848 3.64341085,10.5571696 3.64263566,10.336145 C3.20465116,10.3353639 2.76666667,10.3357545 2.32868217,10.3353639 C2.3251938,10.0018744 2.32209302,9.66799438 2.3127907,9.33489535 C2.09806202,9.32747579 1.88333333,9.32161824 1.66860465,9.31654171 C1.66744186,9.21383943 1.66627907,9.11113714 1.66511628,9.00921587 C1.44612403,9.00804436 1.22713178,9.00765386 1.00813953,9.00726336 C1.00775194,8.68236489 1.00775194,8.35707591 1.00736434,8.03217744 C0.671317829,8.03178694 0.335658915,8.03178694 0,8.03139644 C0,7.81037176 0,7.58934708 0,7.3687129 C0.550775194,7.3683224 1.10155039,7.37105592 1.65232558,7.35895033 C1.65930233,7.12777257 1.66511628,6.89659481 1.66976744,6.66541706 C1.90232558,6.66502655 2.13527132,6.66463605 2.36821705,6.66463605 C2.36046512,6.4475164 2.35271318,6.23117776 2.34302326,6.01444861 Z" id="Shape"></path>
                <path d="M5.00026137,6.00026137 C5.33311553,5.99967329 5.66655776,6.00026137 6,6.00026137 C6,6.33311553 6,6.66655776 6,7 C5.66655776,7 5.33370361,7 5.00026137,7 C4.99967329,6.66655776 5.00026137,6.33370361 5.00026137,6.00026137 Z" id="Shape"></path>
                <path d="M6.66718934,6 C7.11132889,6.00039017 7.55586045,6.0011705 8,6.00039017 C7.99843199,6.44245025 7.99921599,6.88451034 8,7.32657043 C7.55546844,7.32696059 7.11132889,7.32696059 6.66718934,7.32735076 C6.66679733,7.54740538 6.66640533,7.76785018 6.66640533,7.98829497 C6.44531556,7.99024581 6.2246178,7.99765899 6.00392003,8 C6.00078401,7.55481857 6.000392,7.10963714 6,6.66406555 C6.22187377,6.66367538 6.44413955,6.66328521 6.66640533,6.66289504 C6.66640533,6.44166992 6.66679733,6.22083496 6.66718934,6 Z" id="Shape"></path>
                <path d="M10,6 C10.3333333,6 10.6666667,6 11,6 C10.9975031,6.66647059 10.9981273,7.33352941 11,8 C10.6660424,8 10.3327091,8 10,8 C10.0018727,7.33294118 10.0012484,6.66647059 10,6 Z" id="Shape"></path>
                <path d="M19.000298,6 C19.4370374,6.00116257 19.8741742,6.00077504 20.3113109,6 C20.3109135,6.21933734 20.3117083,6.4390622 20.3125031,6.65878706 C20.5362376,6.65878706 20.760767,6.65917458 20.9856937,6.65994962 C20.9896677,6.88238713 20.9976156,7.10559969 21,7.32842472 C20.7750733,7.32919977 20.5509413,7.32183685 20.326412,7.32571207 C20.3188615,7.55008719 20.3140927,7.77484984 20.3101187,8 C20.0983061,7.99302461 19.8876857,7.98333656 19.6762704,7.98992443 C19.6754756,7.5465995 19.6754756,7.10327456 19.6754756,6.65994962 C19.4501515,6.6595621 19.2252248,6.65878706 19.000298,6.65839953 C18.9999007,6.43867468 18.9999007,6.21933734 19.000298,6 Z" id="Shape"></path>
                <path d="M13,6 C13.2070182,6 13.4136444,6 13.6210547,6.00042553 C13.6300725,6.25446809 13.6386983,6.50978723 13.6555577,6.76382979 C14.2079984,6.76638298 14.7604391,6.76638298 15.3128798,6.76595745 C15.3132719,7.00638298 15.313664,7.24723404 15.3144481,7.48808511 C15.4183493,7.48893617 15.5222505,7.48978723 15.6265438,7.49106383 C15.6269359,7.84468085 15.627328,8.1987234 15.6281121,8.55276596 C16.0852774,8.55319149 16.5424427,8.55319149 17,8.55404255 C16.9992158,8.66510638 16.9988238,8.77617021 16.9988238,8.88765957 C16.8819839,8.89148936 16.7741619,8.90042553 16.6600667,8.90680851 C16.6498726,9.27106383 16.6463439,9.63531915 16.6432072,10 C16.318565,9.99957447 15.9943148,9.99957447 15.6700647,10 C15.666536,9.63531915 15.6630073,9.27106383 15.6535973,8.90723404 C15.2136836,8.89361702 14.7741619,8.89276596 14.3346403,8.89191489 C14.333464,8.77914894 14.3326799,8.66638298 14.3318957,8.55404255 C14.1107626,8.55319149 13.8904136,8.55276596 13.6696726,8.55234043 C13.666536,8.18893617 13.6633993,7.82553191 13.6539894,7.46212766 C13.4359929,7.45446809 13.2179965,7.44851064 13,7.44297872 C13.0011762,6.96170213 13.0007842,6.48085106 13,6 Z" id="Shape"></path>
                <path d="M18,6 C18.3327091,6 18.6660424,6 19,6 C18.9975031,6.66647059 18.9981273,7.33352941 19,8 C18.6660424,8 18.3327091,8 18,8 C18.0018727,7.33294118 18.0012484,6.66647059 18,6 Z" id="Shape"></path>
                <path d="M7,8 C7.66666667,8 8.33333333,8 9,8 C8.99960784,8.3332 8.99960784,8.6664 9,9 C8.33333333,9 7.66666667,9 7,9 C7,8.6664 7,8.3332 7,8 Z" id="Shape"></path>
                <path d="M11.1877284,9 C11.7661536,9.00084499 12.3449925,9.00084499 12.9238313,9 C12.9238313,9.71781992 12.9234176,10.4352174 12.9238313,11.1530373 C12.8133596,11.1543048 12.7033016,11.1551498 12.5932436,11.1568397 C12.5928298,11.6342597 12.5928298,12.1121022 12.5924161,12.5895221 C12.2436232,12.5907896 11.8956579,12.5967045 11.5472788,12.602197 C11.5464513,12.363487 11.5543126,12.1251995 11.5501751,11.8864895 C11.3089577,11.8818421 11.0677404,11.8805746 10.8269368,11.8831096 C10.8045942,12.7247207 10.814938,13.5663318 10.8141105,14.4083654 C11.0615341,14.4083654 11.3097852,14.4083654 11.5580364,14.4083654 C11.5580364,14.1683879 11.5584501,13.929678 11.5588639,13.6905455 C12.0276448,13.6897005 12.4960119,13.690123 12.9647928,13.6897005 C12.9652065,13.3377617 12.9652065,12.9858229 12.9656203,12.6338841 C13.3102756,12.6338841 13.6549309,12.6338841 14,12.6338841 C13.9991725,13.2249554 13.9987587,13.8164492 14,14.4079429 C13.4066798,14.4079429 12.8137733,14.4083654 12.2208669,14.4083654 C12.2204531,14.6458079 12.2200394,14.8832504 12.2196256,15.1211154 C11.9904071,15.1266078 11.7616023,15.1321003 11.5327975,15.1447751 C11.5274187,15.3855976 11.5265912,15.6264201 11.5290737,15.867665 C11.8836591,15.8782274 12.2378307,15.8858323 12.5928298,15.8896348 C12.5924161,16.1122899 12.5924161,16.3349451 12.5928298,16.5576002 C12.2345207,16.5660501 11.8753841,16.5576002 11.5183162,16.5884424 C11.5179024,16.8225049 11.5174887,17.0565675 11.5179024,17.291475 C11.8753841,17.3138672 12.2341069,17.3210497 12.5928298,17.3278096 C12.5924161,17.5517322 12.5924161,17.7756549 12.5928298,18 C12.0135772,17.999155 11.4343246,17.999155 10.8554857,18 C10.8550719,17.5306075 10.8554857,17.0620599 10.8542444,16.5935123 C10.3738785,16.5614027 9.89227127,16.5673176 9.41149158,16.5736551 C9.40942282,16.3455075 9.40735406,16.1177824 9.4061128,15.8904798 C9.65022641,15.8862548 9.89475378,15.8832973 10.1388674,15.8761149 C10.1508662,15.3868651 10.1516937,14.8976152 10.152935,14.4083654 C9.90385632,14.4075204 9.65560519,14.4079429 9.40735406,14.4083654 C9.4069403,14.6474979 9.40652655,14.8870529 9.40652655,15.1270303 C8.93733191,15.1257628 8.46896478,15.1257628 8.00018389,15.1270303 C7.99977014,14.8870529 8.00018389,14.6479204 8.00018389,14.4087879 C8.23436746,14.4083654 8.46855103,14.4079429 8.70314835,14.4075204 C8.70314835,14.1683879 8.7035621,13.929678 8.7043896,13.6905455 C8.93815942,13.690123 9.17192923,13.6897005 9.40652655,13.689278 C9.40652655,13.4501455 9.4069403,13.2110131 9.40735406,12.9723031 C9.6572602,12.9718806 9.90716634,12.9714581 10.1574862,12.9714581 C10.1483837,12.6059994 10.1558312,12.2396958 10.1276961,11.8750822 C9.88730625,11.8738147 9.6469164,11.8729697 9.4069403,11.8725472 C9.4069403,11.5206084 9.4069403,11.1686696 9.4069403,10.8171533 C9.63905511,10.8167308 9.87199743,10.8171533 10.104526,10.8179983 C10.1082498,10.937987 10.1169385,11.0638907 10.1231448,11.1855694 C10.596477,11.1961318 11.0698091,11.1995118 11.5431413,11.1893719 C11.5505888,10.9384095 11.5563814,10.6878697 11.5617601,10.4373298 C11.9051742,10.4369073 12.249002,10.4364848 12.5928298,10.4364848 C12.5928298,10.0693362 12.5928298,9.70218759 12.5928298,9.33546146 C12.2386582,9.33884142 11.8844866,9.34264388 11.5307287,9.35193879 C11.5203849,9.71359497 11.5166612,10.0752512 11.5133512,10.4373298 C11.0590516,10.4360623 10.6055795,10.4360623 10.1516937,10.4373298 C10.1516937,10.0849685 10.1516937,9.73345226 10.1516937,9.38151347 C10.4955215,9.38066848 10.8393493,9.38024599 11.1835909,9.379401 C11.1831772,9.25138485 11.1869009,9.12717116 11.1877284,9 Z" id="Shape"></path>
                <path d="M13,9 C13.3333333,9 13.6660424,9 14,9 C13.9975031,9.66647059 13.9981273,10.3329412 14,11 C13.6660424,10.9994118 13.3327091,10.9994118 13,11 C13.0018727,10.3329412 13.0012484,9.66647059 13,9 Z" id="Shape"></path>
                <path d="M19.6713725,9 C19.8768627,9 20.0823529,9 20.2882353,9 C20.2898039,9.12443006 20.3011765,9.25459626 20.3062745,9.38079129 C20.5368627,9.3882924 20.7682353,9.39446977 21,9.40020591 C21,10.2668039 21,11.133402 21,12 C20.7772549,11.9995588 20.5552941,12 20.3337255,12 C20.3329412,11.4996323 20.3333333,11.0001471 20.3333333,10.5002206 C19.8886275,10.4997794 19.4443137,10.4997794 19,10.4993381 C19,10.1335491 19,9.76731872 19,9.40152964 C19.2160784,9.3957935 19.432549,9.3904986 19.6490196,9.3829975 C19.654902,9.25459626 19.6643137,9.12795999 19.6713725,9 Z" id="Shape"></path>
                <path d="M14,10 C14.4603237,10.0007689 14.9202527,10.0007689 15.3809712,10 C15.3809712,10.230296 15.3817608,10.461361 15.3821555,10.6920415 C15.5878405,10.6920415 15.7939203,10.6916571 16,10.6920415 C15.9893407,10.9077278 15.9838137,11.1245675 15.9798658,11.3410227 C15.7670746,11.3433295 15.555073,11.3456363 15.3430715,11.3475586 C15.3422819,11.5647828 15.3418871,11.7823914 15.3414923,12 C14.8941966,11.9988466 14.4469009,11.9988466 14,12 C14,11.3333333 14,10.6666667 14,10 Z" id="Shape"></path>
                <path d="M18.6813275,11 C18.8904438,11.0007057 19.0995602,11.0014114 19.3094762,11.00247 C19.3194722,11.1058574 19.337465,11.2124206 19.3526589,11.3161609 C19.5677729,11.3172195 19.7832867,11.3182781 19.9992003,11.3193366 C19.9988005,11.5067043 19.9988005,11.694072 19.9992003,11.8821454 C19.7816873,11.8824982 19.5645742,11.883204 19.3478609,11.8839097 C19.3378649,12.094566 19.32507,12.305928 19.3390644,12.5169372 C19.5589764,12.51729 19.7788884,12.5179958 19.9988005,12.5187015 C19.9988005,12.7145378 19.9992003,12.910374 20,13.1065632 C19.7828868,13.0949188 19.5657737,13.0864502 19.3490604,13.0786874 C19.3278689,13.3853211 19.3214714,13.6926606 19.3154738,14 C19.1035586,13.9996471 18.8916433,13.9996471 18.6805278,14 C18.6797281,13.7999294 18.6793283,13.6002117 18.6789284,13.400494 C18.4522191,13.4001411 18.2259096,13.3997883 18,13.3997883 C18,13.1072689 18,12.8151023 18,12.5229358 C18.2203119,12.5169372 18.4406238,12.5119972 18.6613355,12.5045872 C18.6809276,12.0031757 18.6817273,11.5017643 18.6813275,11 Z" id="Shape"></path>
                <path d="M1.66705882,11 C2.11137255,11.0007952 2.55568627,11.0007952 3,11 C3,11.2119284 3,11.4238569 3,11.6357853 C2.77764706,11.6357853 2.55568627,11.6365805 2.33372549,11.6369781 C2.33333333,12.0914513 2.3345098,12.5455268 2.33137255,13 C2.10980392,12.9984095 1.88862745,12.9912525 1.66705882,12.9872763 C1.66666667,12.7622266 1.66627451,12.5375746 1.66627451,12.3129225 C1.44392157,12.3125249 1.22196078,12.3121272 1,12.3121272 C1,12.1001988 1,11.888668 1,11.6771372 C1.22196078,11.6763419 1.44392157,11.6759443 1.66627451,11.6755467 C1.66627451,11.4500994 1.66666667,11.2250497 1.66705882,11 Z" id="Shape"></path>
                <path d="M6,11 C6.74955882,11 7.49955882,11 8.24911765,11 C8.24955882,11.2264 8.25,11.4528 8.25088235,11.6796 C8.50014706,11.6796 8.74985294,11.68 9,11.6804 C8.99955882,11.8932 8.99955882,12.106 9,12.3192 C8.74985294,12.3192 8.50014706,12.32 8.25044118,12.3208 C8.25,12.5468 8.24955882,12.7732 8.24955882,13 C7.99941176,12.9996 7.75014706,13 7.50044118,13 C7.5,12.7732 7.49955882,12.5468 7.49911765,12.3204 C7.24941176,12.32 7.00014706,12.3196 6.75044118,12.3192 C6.75,12.0928 6.74955882,11.8668 6.74955882,11.6404 C6.49941176,11.64 6.24970588,11.6396 6,11.6396 C6,11.426 6,11.2128 6,11 Z" id="Shape"></path>
                <path d="M3.72398468,12 C4.4460782,12 5.16817172,12 5.88983972,12 C5.89452035,12.2190213 5.89920098,12.4384372 5.90643468,12.6574585 C6.27067278,12.6673243 6.63533639,12.670876 7,12.6744277 C7,13.0023677 7,13.329913 7,13.6582476 C6.51789513,13.6566691 6.03579027,13.6566691 5.55411092,13.657853 C5.55325989,13.4340961 5.55240887,13.2111285 5.55198336,12.9881609 C5.44135029,12.9865824 5.33071722,12.9853985 5.22050967,12.9842146 C5.21157392,12.869771 5.20604227,12.7624309 5.19668101,12.6499605 C5.06732542,12.6475927 4.93754432,12.6448302 4.80818874,12.6436463 C4.79840197,12.7561167 4.78989173,12.8709549 4.78095598,12.9842146 C4.67032292,12.9857931 4.56011536,12.9873716 4.44948229,12.9889502 C4.44778025,13.092344 4.4460782,13.1961325 4.44437615,13.2999209 C4.33119001,13.3011048 4.21800388,13.3026834 4.10524325,13.3046565 C4.08822278,13.4206786 4.07205333,13.5367007 4.05545837,13.6535121 C3.94525082,13.6554852 3.83461775,13.6574584 3.72441019,13.6598262 C3.72355917,13.7742697 3.72441019,13.8946328 3.72398468,14.0106549 C3.83674531,14.0118388 3.94950593,14.0130227 4.06226656,14.0146012 C4.06311758,14.1183897 4.06439412,14.2225728 4.06567065,14.3271505 C4.30438277,14.3275451 4.5435204,14.3283344 4.78265803,14.3291237 C4.79074275,14.5477503 4.80010401,14.766377 4.81116732,14.9853983 C4.20779159,15.0027621 3.60399036,14.9999997 3.00018912,14.999605 C2.9997636,14.223362 3.00018912,13.4475137 3.00018912,12.6712706 C3.24102879,12.670876 3.48186847,12.6704814 3.72313366,12.6700867 C3.72313366,12.4463299 3.72355917,12.2233622 3.72398468,12 Z" id="Shape"></path>
                <path d="M0.000173150179,12 C0.323141521,12 0.646109893,12 0.968688676,12 C0.974922082,12.2171053 0.980765901,12.4342105 0.988557659,12.6517105 C1.21763535,12.66 1.44593386,12.6686842 1.67501154,12.6757895 C1.67501154,13.2398684 1.67540113,13.8039474 1.67540113,14.3680263 C2.11719381,14.3684211 2.55859691,14.3684211 3,14.3688158 C3,14.5788158 3,14.7892105 3,15 C1.99992785,15 1.0002453,15 0.000173150179,15 C-0.000216437724,13.9997368 0.000173150179,12.9998684 0.000173150179,12 Z" id="Shape"></path>
                <path d="M14.330858,13 C14.7348724,13.0007299 15.1392545,13.0007299 15.5436365,13 C15.5436365,13.2065543 15.5440041,13.4138384 15.5443717,13.6207576 C16.2781413,13.6196628 17.0119109,13.6218524 17.7456805,13.6207576 C17.7493567,13.8353405 17.7526652,14.0506532 17.75965,14.265966 C18.1728549,14.277279 18.5864275,14.2780089 19,14.2787388 C18.9988971,14.6787096 18.9988971,15.0786804 18.9996324,15.4786512 C18.794868,15.4826655 18.5901037,15.4866798 18.3860746,15.4928837 C18.3816631,15.7034523 18.3809279,15.9140209 18.3831336,16.1253193 C18.5882656,16.1315232 18.7937652,16.1369973 18.9996324,16.1421064 C18.9992648,16.3344281 18.9992648,16.5267499 18.9996324,16.7194365 C18.7952356,16.7234508 18.5915741,16.7274651 18.3882803,16.7336691 C18.3812955,16.9354792 18.3757812,17.1372892 18.3710021,17.3398292 C18.1691787,17.3438435 17.967723,17.3478578 17.7662672,17.3544267 C17.7574443,17.4577038 17.75193,17.5646303 17.7445776,17.6693672 C17.6486288,17.670462 17.5530476,17.6719218 17.4574664,17.6733815 C17.4534225,17.7792132 17.4563635,17.8919787 17.4541578,17.9996351 C17.3574737,17.9992701 17.2607896,17.9996351 17.1648408,18 C17.160797,17.7839574 17.1582237,17.5686446 17.1519741,17.3529669 C16.8284685,17.346763 16.5049629,17.346763 16.1821925,17.3529669 C16.1752077,17.5682797 16.170061,17.7839574 16.1660172,18 C16.0689655,17.9996351 15.9719138,17.9996351 15.8752298,18 C15.8748621,17.7806729 15.8744945,17.5620758 15.8744945,17.3434786 C15.457981,17.3427487 15.0414675,17.3431136 14.6253217,17.3427487 C14.6245864,16.9292752 14.624954,16.5161667 14.6245864,16.1026932 C14.4161459,16.1023283 14.2080729,16.1019634 14,16.1019634 C14,15.9078169 14,15.7144004 14,15.5209839 C14.3146827,15.5180644 14.6297331,15.5147799 14.9447835,15.5063864 C14.9484597,15.2965477 14.9488273,15.0874389 14.9469892,14.8779651 C14.8385413,14.8695716 14.7330343,14.8640975 14.6253217,14.8571637 C14.624954,14.6641121 14.624954,14.4710605 14.624954,14.2783738 C14.8326594,14.277644 15.0410999,14.277279 15.2499081,14.277279 C15.2499081,14.057952 15.2499081,13.8397197 15.2499081,13.6211225 C14.943313,13.6203927 14.6370855,13.6203927 14.330858,13.6203927 C14.3304904,13.4131085 14.3304904,13.2065543 14.330858,13 L14.330858,13 Z M15.5440041,14.8980366 C15.5440041,15.5184293 15.5440041,16.138457 15.5440041,16.7592147 C16.2913756,16.7592147 17.0387472,16.7592147 17.7864863,16.7592147 C17.7864863,16.1337129 17.7931034,15.5078461 17.773252,14.8827093 C17.0306595,14.9144588 16.2869642,14.8918327 15.5440041,14.8980366 Z" id="Shape"></path>
                <path d="M5.00019607,14 C5.50001634,14.0008822 5.99983661,14.0008822 6.49965689,14 C6.49965689,14.2642258 6.50009803,14.5293339 6.50053918,14.7940009 C6.75022874,14.7940009 6.99947716,14.794442 7.24960787,14.7953242 C7.24960787,15.0441112 7.25004902,15.2937803 7.25049016,15.5438906 C7.50017973,15.5438906 7.74986929,15.5443317 8,15.5447728 C7.99955885,15.7794442 8,16.0145567 8,16.2496692 C7.50017973,16.2501103 7.00035945,16.2496692 6.50053918,16.2505514 C6.50009803,16.4997794 6.49965689,16.7498897 6.49965689,17 C6.24952617,16.9995589 5.99983661,16.9995589 5.7505882,17 C5.75014705,16.2501103 5.7497059,15.5006617 5.75014705,14.7512131 C5.50001634,14.7503308 5.25032678,14.7498897 5.00019607,14.7498897 C4.99975492,14.4993383 5.00019607,14.2496692 5.00019607,14 Z" id="Shape"></path>
                <path d="M12.0099532,15 C12.4953162,15 12.9806792,15 13.4666276,15 C13.4730679,15.326809 13.4806792,15.6542112 13.4912178,15.9816133 C13.6580796,15.9911032 13.8296253,16.004745 13.998829,16.0154211 C13.998829,16.3274021 13.9994145,16.6393832 14,16.9525504 C13.4871194,16.9572954 12.9742389,16.9644128 12.4619438,16.9857651 C12.3062061,16.9881376 12.1539813,16.9958482 12,17 C12.0099532,16.3333333 12.0105386,15.6666667 12.0099532,15 Z" id="Shape"></path>
                <path d="M8,16.0002272 C8.33313749,15.9999243 8.66627497,15.9999243 9,16.0002272 C8.99823737,16.3334848 8.99823737,16.6664394 9,17 C8.66627497,16.999697 8.33313749,17 8,17 C8.00117509,16.6664394 8.00117509,16.3334848 8,16.0002272 Z" id="Shape"></path>
                <path d="M19.6676397,17 C20.1114984,17.0010907 20.5557492,17.0007271 21,17 C20.9992158,17.5082712 20.9988237,18.0161789 20.9996079,18.5244501 C20.7694444,18.5277222 20.5400651,18.5302672 20.3106859,18.5368115 C20.3016675,18.6407926 20.2973544,18.7484094 20.2902966,18.8538448 C20.5263416,18.8534812 20.7631708,18.8545719 21,18.8549355 C20.9992158,19.3635703 20.9988237,19.8725686 21,20.381567 C20.7784627,20.3812034 20.5577097,20.3812034 20.3369566,20.381567 C20.3310751,20.1805126 20.3259778,19.9798219 20.3185279,19.7798582 C20.0926775,19.7747682 19.8672192,19.768224 19.641761,19.7689511 C19.634311,19.9801854 19.6296058,20.1914197 19.6256848,20.4030176 C19.1869234,20.381567 18.7477699,20.3793856 18.3090085,20.3884748 C18.3011665,20.5920742 18.295285,20.7956735 18.2905798,21 C17.8600525,20.9985457 17.4299173,20.9989093 17.0001743,21 C16.9997822,20.8073078 17.0001743,20.6146155 17.0001743,20.4226504 C17.2166142,20.4168333 17.4346225,20.412834 17.6514546,20.4022905 C17.6706676,19.8867479 17.6679228,19.3708417 17.6675307,18.855299 C17.8882838,18.8542083 18.1102132,18.8538448 18.3321425,18.8538448 C18.3325346,18.7567715 18.3333188,18.6604254 18.3348872,18.5640793 C18.7685513,18.5637157 19.2029996,18.5640793 19.6370558,18.5629885 C19.6735212,18.0423559 19.6684239,17.5209962 19.6676397,17 Z" id="Shape"></path>
                <path d="M6.00293772,18 C6.33548766,18.0006008 6.66745006,18.0063082 7,18.0096125 C6.99823737,18.3394413 6.99823737,18.6695704 7,19 C6.66627497,18.9996996 6.33313749,18.9996996 6,19 C6.00117509,18.6665665 6.00058754,18.3331331 6.00293772,18 Z" id="Shape"></path>
                <path d="M2.00032751,18 C2.66701078,18 3.33331674,18 4,18 C4,18.6625572 4,19.325512 4,19.9884669 C3.33444863,19.985683 2.66927456,19.9884669 2.00372318,20 C1.99844103,19.3330682 2.00032751,18.6665341 2.00032751,18 Z" id="Shape"></path>
                <path d="M13.0111298,18 C13.189882,18 13.3689713,18 13.5480607,18.000441 C13.5487352,18.1173184 13.549747,18.2346369 13.5510961,18.3519553 C13.7413153,18.3519553 13.9318718,18.3528374 14.1224283,18.3537195 C14.1227656,18.9804469 14.1200675,19.6071744 14.13086,20.2343428 C14.4202361,20.244928 14.7099494,20.2493384 15,20.2533079 C14.9996627,20.5016172 15,20.7508086 15,21 C14.5315346,20.999559 14.0630691,21.0013231 13.594941,20.9880917 C13.5834739,20.4817701 13.5844857,19.9758894 13.5757167,19.4700088 C13.3834739,19.4642752 13.1919056,19.4633931 13,19.4642752 C13.0060708,18.9760365 13.0118044,18.4877977 13.0111298,18 Z" id="Shape"></path>
                <path d="M8.00017343,19 C8.66314032,19 9.32571701,19 9.98868391,19 C9.98946433,19.2854237 9.99492727,19.5715254 10,19.8572881 C9.55438011,19.8515254 9.10915043,19.8461017 8.66392074,19.8467797 C8.66353053,20.2308475 8.66353053,20.6152542 8.66353053,21 C8.44189122,20.999661 8.22103232,20.999661 8.00017343,21 C7.99978322,20.3332203 8.00017343,19.6664407 8.00017343,19 Z" id="Shape"></path>
                <path d="M11.5230012,19 C12.0154833,19.0006663 12.5075178,19.0006663 13,19 C12.9995523,19.2881547 12.9995523,19.5763094 12.9995523,19.8647972 C12.8809089,19.8654635 12.7622654,19.8664628 12.643622,19.8677953 C12.6413834,20.2408974 12.6449651,20.6146656 12.6319815,20.9884339 C11.7549155,21.0060896 10.8774018,20.9980946 10.0003358,20.9987609 C9.99988807,20.8102111 9.99988807,20.6219944 10.0003358,20.4341109 C10.5026676,20.4321122 11.0054472,20.434444 11.5082267,20.4254496 C11.5261351,19.9504108 11.5238966,19.4750388 11.5230012,19 Z" id="Shape"></path>
            </g>
        </g>
    </g>
</svg>