<?xml version="1.0" encoding="UTF-8"?>
<svg width="512px" height="512px" viewBox="0 0 512 512" version="1.1" xmlns="http://www.w3.org/2000/svg" xmlns:xlink="http://www.w3.org/1999/xlink">
    <!-- Generator: Sketch 47 (45396) - http://www.bohemiancoding.com/sketch -->
    <title>Shape</title>
    <desc>Created with Sketch.</desc>
    <defs></defs>
    <g id="Page-1" stroke="none" stroke-width="1" fill="none" fill-rule="evenodd">
        <path d="M245.51,0 L267.02,0 C302.03,1.69 336.75,10.32 368.18,25.91 C417.49,50.06 458.52,90.55 483.55,139.4 C500.74,172.55 510.27,209.5 512,246.77 L512,268.53 C510.28,307.46 499.96,346.07 481.27,380.3 C447.83,442.47 387.91,490.02 319.33,507.29 C310.77,509.5 302.07,511.2 293.26,512 L281.43,512 C268.69,511.15 255.78,506.51 246.91,497.04 C236.7,486.09 231.72,470.8 232.24,455.95 C232.26,426.3 232.26,396.66 232.24,367.01 C223.58,366.98 214.91,367.02 206.25,366.99 C206.25,355.33 206.25,343.67 206.25,332.01 C214.91,331.97 223.58,332.02 232.24,331.99 C232.26,295.33 232.25,258.68 232.25,222.02 C232.2,212.65 230.09,202.59 223.34,195.66 C217.67,189.66 209.06,187.46 201.03,187.73 C193.37,187.83 185.41,190.38 180.17,196.19 C173.83,203.12 171.81,212.88 171.75,222.01 C171.75,258.67 171.75,295.33 171.75,331.99 C156.58,332.01 141.42,332.01 126.25,331.99 C126.27,270.82 126.22,209.66 126.27,148.49 C141.1,148.52 155.92,148.47 170.75,148.51 C170.75,154.01 170.75,159.51 170.74,165.01 C181.25,155.46 194.35,148.41 208.6,146.8 C223.83,144.95 240.17,147.96 252.51,157.47 C256.92,160.88 260.73,164.99 264.25,169.3 C269.65,164.26 275.26,159.36 281.69,155.65 C299.44,145.28 321.65,143.75 341.09,149.97 C353.55,153.9 365,161.68 372.28,172.64 C380.32,184.44 383.28,198.95 383.5,213.03 C383.5,252.68 383.5,292.33 383.51,331.98 C368.26,332.02 353.01,332 337.76,331.99 C337.75,295.33 337.73,258.68 337.77,222.03 C337.93,213.4 335.97,204.36 330.54,197.47 C326.11,191.8 319.1,188.57 312.02,187.92 C303.51,187.06 294.2,188.72 287.74,194.68 C280.47,201.29 277.82,211.51 277.75,221.04 C277.75,258.02 277.74,295.01 277.76,331.99 C286.25,332.02 294.75,331.98 303.24,332.01 C303.26,343.67 303.26,355.33 303.24,366.99 C294.75,367.02 286.25,366.98 277.76,367.01 C277.74,396.34 277.76,425.67 277.75,455 C277.8,460.1 278.5,465.8 282.42,469.49 C286.26,473 291.91,473.19 296.78,472.38 C334.43,466.36 369.62,448.25 397.92,422.93 C425.2,398.61 446.43,367.57 459.25,333.34 C472.88,297.38 476.49,257.76 469.8,219.9 C464.09,187.12 450.75,155.7 431.11,128.85 C412.85,103.64 389.08,82.46 362,67.12 C330.73,49.36 294.94,39.6 258.98,39.24 C223.29,38.63 187.51,47.22 155.95,63.87 C124.24,80.51 96.78,105.11 76.71,134.77 C54.98,166.67 41.94,204.43 39.43,242.95 C36.95,279.47 43.71,316.61 59.18,349.81 C81.56,398.55 122.55,438.41 171.97,459.29 C172.02,473.32 172.01,487.35 171.98,501.38 C130.18,486.81 92.4,461.02 63.39,427.61 C37.91,398.43 19.12,363.44 8.96,326.05 C3.77,307.29 0.98,287.93 0,268.5 L0,246.82 C1.39,218.11 7.18,189.57 17.81,162.84 C37.6,112.37 73.78,68.52 119.59,39.51 C157.11,15.52 201.04,1.9 245.51,0 Z" id="Shape" fill="#FFFFFF" fill-rule="nonzero"></path>
    </g>
</svg>